<?xml version="1.0" encoding="UTF-8"?>
<svg version="1.1" xmlns="http://www.w3.org/2000/svg" width="384" height="256">
<path d="M0 0 C3.51324072 1.36533526 6.73610944 2.98092587 10.046875 4.78125 C11.74070312 5.69390625 11.74070312 5.69390625 13.46875 6.625 C16.296875 8.28125 16.296875 8.28125 18.296875 10.28125 C18.54592974 13.09122894 18.67341655 15.79895124 18.703125 18.61328125 C18.71452515 19.44204269 18.72592529 20.27080414 18.7376709 21.12467957 C18.75657954 22.88067512 18.76964235 24.63674179 18.77734375 26.39282227 C18.79673 29.07369778 18.85873713 31.75148748 18.921875 34.43164062 C18.93493837 36.13800262 18.94543803 37.84438656 18.953125 39.55078125 C18.9778186 40.34990433 19.00251221 41.1490274 19.0279541 41.97236633 C18.98428061 47.45833623 18.98428061 47.45833623 16.91674805 49.93344116 C15.25585938 51.3269043 15.25585938 51.3269043 12.296875 53.28125 C14.49417884 54.65682241 16.70177438 56.00588252 18.921875 57.34375 C19.53933594 57.73369141 20.15679687 58.12363281 20.79296875 58.52539062 C23.91680017 60.38324826 25.70650056 61.29236119 29.41015625 61.22265625 C33.53609486 59.87712011 36.9346531 57.72551142 40.61328125 55.4609375 C43.79238069 54.06342945 45.04603659 54.19588094 48.296875 55.28125 C49.63638455 55.93541847 50.9707964 56.60026706 52.296875 57.28125 C52.2654541 56.31300293 52.2654541 56.31300293 52.23339844 55.32519531 C52.15013295 52.39403932 52.09818294 49.46313223 52.046875 46.53125 C52.01335937 45.51546875 51.97984375 44.4996875 51.9453125 43.453125 C51.84706712 35.98647642 51.84706712 35.98647642 53.8515625 32.84375 C57.07463502 30.78427874 60.29361728 28.82678068 63.671875 27.03125 C64.31898438 26.66773437 64.96609375 26.30421875 65.6328125 25.9296875 C69.66833278 23.76547703 72.63786576 22.48057344 77.296875 23.28125 C80.69597704 24.68315636 83.88937799 26.38659229 87.109375 28.15625 C88.41551758 28.84654297 88.41551758 28.84654297 89.74804688 29.55078125 C96.15428438 32.99606876 96.15428438 32.99606876 97.296875 35.28125 C97.12877468 37.07094823 96.90889839 38.85589511 96.6640625 40.63671875 C96.02296973 47.75710847 95.5441649 54.54897804 98.296875 61.28125 C104.67638686 67.87137672 113.48830823 71.21225998 121.79931641 74.73193359 C135.91821961 80.98619576 135.91821961 80.98619576 138.62426758 85.4909668 C138.84622803 86.08176025 139.06818848 86.67255371 139.296875 87.28125 C138.636875 88.27125 137.976875 89.26125 137.296875 90.28125 C138.66517196 90.8194468 140.04199965 91.33597409 141.421875 91.84375 C142.18757812 92.13378906 142.95328125 92.42382812 143.7421875 92.72265625 C150.55202393 94.21165718 155.4046009 90.6811257 161.00390625 87.265625 C164.296875 86.28125 164.296875 86.28125 173.296875 89.28125 C173.296875 81.69125 173.296875 74.10125 173.296875 66.28125 C170.574375 64.775625 167.851875 63.27 165.046875 61.71875 C163.77021973 61.00029907 163.77021973 61.00029907 162.46777344 60.26733398 C161.7874707 59.89938721 161.10716797 59.53144043 160.40625 59.15234375 C159.71499023 58.77005615 159.02373047 58.38776855 158.31152344 57.99389648 C155.84508674 57.12143784 154.73334384 57.42380276 152.296875 58.28125 C138.6988412 62.81392793 123.08710919 57.93579335 110.609375 52.46875 C109.61542725 52.04223145 108.62147949 51.61571289 107.59741211 51.17626953 C106.66936768 50.75071777 105.74132324 50.32516602 104.78515625 49.88671875 C103.94509033 49.50668701 103.10502441 49.12665527 102.23950195 48.73510742 C100.296875 47.28125 100.296875 47.28125 99.51635742 44.6184082 C99.44392822 43.847146 99.37149902 43.07588379 99.296875 42.28125 C101.9458042 40.58506918 104.61713192 38.92826817 107.296875 37.28125 C108.05226562 36.80429688 108.80765625 36.32734375 109.5859375 35.8359375 C114.31613041 32.99131977 117.61788157 31.50178031 123.296875 32.28125 C124.64748782 32.9121757 125.98526086 33.57280765 127.296875 34.28125 C127.24337891 33.57105713 127.18988281 32.86086426 127.13476562 32.12915039 C125.94504247 12.47793023 125.94504247 12.47793023 129.81787109 7.21386719 C134.86171282 2.96847145 140.86241035 0.76809422 147.328125 -0.1484375 C151.44624621 0.44760636 154.52613418 2.17368085 158.109375 4.21875 C158.78935547 4.59193359 159.46933594 4.96511719 160.16992188 5.34960938 C165.08487374 8.06924874 165.08487374 8.06924874 166.296875 9.28125 C166.61379638 14.90799457 166.653748 20.53710128 166.7019043 26.171875 C166.72347221 28.07114864 166.757561 29.97032321 166.80444336 31.86914062 C166.87143249 34.60592075 166.89890221 37.34064074 166.91796875 40.078125 C166.94579941 40.92413269 166.97363007 41.77014038 167.00230408 42.64178467 C166.98210718 48.44514867 166.98210718 48.44514867 164.91897583 50.96252441 C163.25805664 52.35644531 163.25805664 52.35644531 160.296875 54.28125 C167.19317216 59.54025529 167.19317216 59.54025529 175.296875 62.28125 C179.28439716 61.32388545 182.46337447 59.18573771 185.75195312 56.80102539 C189.0630977 54.40369851 190.59816957 53.29292103 194.8046875 53.22265625 C198.82560538 54.44152509 202.10144208 56.10397108 205.671875 58.28125 C206.29964844 58.64992187 206.92742187 59.01859375 207.57421875 59.3984375 C212.08134921 62.06572421 212.08134921 62.06572421 213.296875 63.28125 C213.43518366 66.04608778 213.51003382 68.78414556 213.53515625 71.55078125 C213.543228 72.38332932 213.55129974 73.21587738 213.55961609 74.07365417 C213.57347353 75.83985298 213.58418823 77.60607875 213.59204102 79.37231445 C213.60923835 82.07229556 213.65310604 84.77104745 213.69726562 87.47070312 C213.70739355 89.18488681 213.71590934 90.89908093 213.72265625 92.61328125 C213.74016434 93.42070267 213.75767242 94.22812408 213.77571106 95.06001282 C213.7617488 98.67402728 213.67193387 100.79570981 211.42626953 103.70288086 C210.72356934 104.22374268 210.02086914 104.74460449 209.296875 105.28125 C208.47316406 105.91546875 207.64945312 106.5496875 206.80078125 107.203125 C195.04669547 114.50845321 181.70493138 113.85259682 168.49121094 110.99194336 C165.59545085 110.05407535 162.9908037 108.68760389 160.296875 107.28125 C160.30323975 108.18891113 160.30960449 109.09657227 160.31616211 110.03173828 C160.32331088 113.42112155 160.29913966 116.8073494 160.25415039 120.19628906 C160.24106344 121.65879576 160.24022824 123.1214681 160.25219727 124.58398438 C160.33835564 136.62974616 160.33835564 136.62974616 157.91137695 140.47827148 C156.12021287 142.06712298 154.41455063 143.17230777 152.296875 144.28125 C150.62044922 145.31185547 150.62044922 145.31185547 148.91015625 146.36328125 C147.82089844 146.93433594 146.73164063 147.50539062 145.609375 148.09375 C144.51238281 148.67769531 143.41539062 149.26164063 142.28515625 149.86328125 C138.6806001 151.57367848 136.48808902 152.35622151 132.50390625 152.10546875 C118.21540712 151.52998259 107.10751734 160.16565806 95.296875 167.28125 C92.48271144 168.94288771 89.65103056 170.56453838 86.796875 172.15625 C85.7346875 172.77242187 84.6725 173.38859375 83.578125 174.0234375 C78.33158658 176.03461056 74.02777076 176.31301349 68.71337891 174.30517578 C65.86656372 172.93414298 63.11551019 171.45136671 60.359375 169.90625 C58.85636841 169.09293213 58.85636841 169.09293213 57.32299805 168.26318359 C54.30281901 166.6224444 51.2982645 164.95606963 48.296875 163.28125 C46.60426529 162.34357195 44.9115637 161.40605973 43.21875 160.46875 C41.68225675 159.61464615 40.14579699 158.76048203 38.609375 157.90625 C37.51447754 157.30006836 37.51447754 157.30006836 36.39746094 156.68164062 C33.16207722 154.88832212 29.94532802 153.07793847 26.765625 151.1875 C25.7240625 150.5996875 24.6825 150.011875 23.609375 149.40625 C22.73925781 148.89320313 21.86914062 148.38015625 20.97265625 147.8515625 C17.47735063 147.10657765 16.38206023 148.40309367 13.50463867 150.25439453 C3.12425633 155.08242595 -14.23931336 152.74208195 -24.6875 149.21484375 C-37.14299421 144.2783994 -37.14299421 144.2783994 -40.703125 141.28125 C-41.45996094 138.61401367 -41.45996094 138.61401367 -41.703125 136.28125 C-38.69719869 134.42259979 -35.67130385 132.59921063 -32.640625 130.78125 C-31.79306641 130.25660156 -30.94550781 129.73195312 -30.07226562 129.19140625 C-25.13223339 126.25408979 -21.62432561 124.39417875 -15.703125 125.28125 C-14.383125 125.94125 -13.063125 126.60125 -11.703125 127.28125 C-11.703125 118.70125 -11.703125 110.12125 -11.703125 101.28125 C-9.2075 99.816875 -6.711875 98.3525 -4.140625 96.84375 C-3.36904053 96.38299072 -2.59745605 95.92223145 -1.80249023 95.44750977 C2.54262928 92.952956 6.17129473 91.37256081 11.296875 91.28125 C13.95703125 92.3125 13.95703125 92.3125 16.359375 93.78125 C19.51638 95.49846939 20.95992531 96.27489246 24.609375 96.34375 C27.69426798 95.12414115 29.75598425 93.38801871 32.296875 91.28125 C31.66595947 90.94391846 31.03504395 90.60658691 30.38500977 90.2590332 C27.53325452 88.72148967 24.69650036 87.15811195 21.859375 85.59375 C20.86615234 85.06330078 19.87292969 84.53285156 18.84960938 83.98632812 C17.90537109 83.46103516 16.96113281 82.93574219 15.98828125 82.39453125 C15.11373291 81.91798096 14.23918457 81.44143066 13.33813477 80.95043945 C11.296875 79.28125 11.296875 79.28125 10.50366211 76.58666992 C10.43542236 75.82588135 10.36718262 75.06509277 10.296875 74.28125 C19.72544643 66.28125 19.72544643 66.28125 24.296875 66.28125 C24.296875 65.62125 24.296875 64.96125 24.296875 64.28125 C23.58402344 64.01828125 22.87117188 63.7553125 22.13671875 63.484375 C19.18274331 62.2328971 16.59945354 60.6947303 13.859375 59.03125 C9.58093024 56.56509641 9.58093024 56.56509641 4.734375 56.84375 C3.93 57.318125 3.125625 57.7925 2.296875 58.28125 C-0.52957425 59.69447462 -2.9224018 59.45133431 -6.078125 59.46875 C-7.79128906 59.49001953 -7.79128906 59.49001953 -9.5390625 59.51171875 C-20.1898743 59.12101058 -28.91535939 56.29560759 -38.453125 51.65625 C-39.54367188 51.140625 -40.63421875 50.625 -41.7578125 50.09375 C-44.41288963 48.83608188 -47.06071994 47.56527167 -49.703125 46.28125 C-49.13041243 41.69047395 -49.13041243 41.69047395 -47.24780273 39.88745117 C-45.22054175 38.72928226 -43.19598966 37.5766192 -41.140625 36.46875 C-40.10325195 35.85870117 -40.10325195 35.85870117 -39.04492188 35.23632812 C-34.00995266 32.44433681 -30.44940464 31.68431224 -24.703125 32.28125 C-23.383125 32.94125 -22.063125 33.60125 -20.703125 34.28125 C-20.703125 26.03125 -20.703125 17.78125 -20.703125 9.28125 C-18.104375 7.816875 -15.505625 6.3525 -12.828125 4.84375 C-12.01102051 4.38299072 -11.19391602 3.92223145 -10.35205078 3.44750977 C-9.38501221 2.90308228 -9.38501221 2.90308228 -8.3984375 2.34765625 C-7.73859863 1.97584229 -7.07875977 1.60402832 -6.39892578 1.22094727 C-2.83514948 -0.75385478 -2.83514948 -0.75385478 0 0 Z M31.609375 96.78125 C30.39701172 97.47734375 30.39701172 97.47734375 29.16015625 98.1875 C28.54527344 98.5484375 27.93039063 98.909375 27.296875 99.28125 C28.286875 100.76625 28.286875 100.76625 29.296875 102.28125 C29.54071185 104.97934174 29.67276333 107.57193231 29.703125 110.2734375 C29.71452515 111.05639191 29.72592529 111.83934631 29.7376709 112.64602661 C29.75655143 114.30188609 29.7696312 115.95782038 29.77734375 117.61376953 C29.79675776 120.14098828 29.85879986 122.66495132 29.921875 125.19140625 C29.93493639 126.80206406 29.94543683 128.41274508 29.953125 130.0234375 C29.9778186 130.77567596 30.00251221 131.52791443 30.0279541 132.302948 C30.00307599 135.24862517 29.92825176 137.57088134 27.91674805 139.83404541 C26.42060741 141.03961191 24.86156097 142.16608849 23.296875 143.28125 C23.296875 143.94125 23.296875 144.60125 23.296875 145.28125 C23.99022949 145.6529834 24.68358398 146.0247168 25.39794922 146.40771484 C28.65666053 148.15585804 31.91447801 149.90565948 35.171875 151.65625 C35.76078522 151.97260406 36.34969543 152.28895813 36.95645142 152.61489868 C45.2156698 157.0537905 53.44804198 161.53594274 61.59912109 166.17138672 C63.48576483 167.23433022 65.38239537 168.26939136 67.296875 169.28125 C67.89967285 169.6004541 68.5024707 169.9196582 69.12353516 170.24853516 C73.31686079 172.27815519 75.85931386 172.6624409 80.296875 171.28125 C83.37986164 169.90566064 86.33459369 168.33573271 89.296875 166.71875 C90.12614502 166.27418457 90.95541504 165.82961914 91.80981445 165.37158203 C99.04652292 161.4716262 106.19830426 157.42690795 113.296875 153.28125 C113.296875 152.62125 113.296875 151.96125 113.296875 151.28125 C112.68690674 151.02432373 112.07693848 150.76739746 111.44848633 150.50268555 C108.66713305 149.32857128 105.88824898 148.14871953 103.109375 146.96875 C102.14966797 146.56462891 101.18996094 146.16050781 100.20117188 145.74414062 C98.80415039 145.14956055 98.80415039 145.14956055 97.37890625 144.54296875 C96.52530518 144.18162842 95.6717041 143.82028809 94.79223633 143.44799805 C92.17312315 142.22338774 89.74992723 140.80840468 87.296875 139.28125 C89.34270223 134.46320623 92.49716295 132.99656143 96.921875 130.53125 C97.60894531 130.12003906 98.29601562 129.70882812 99.00390625 129.28515625 C105.40615182 125.6696292 110.08540398 125.47838225 117.296875 127.28125 C117.296875 119.03125 117.296875 110.78125 117.296875 102.28125 C113.51227421 103.79509032 110.30902802 105.31774591 106.8046875 107.3203125 C105.76957031 107.90039062 104.73445313 108.48046875 103.66796875 109.078125 C101.50647729 110.29542705 99.35017509 111.52199031 97.19921875 112.7578125 C86.85449263 118.51487747 86.85449263 118.51487747 81.296875 117.28125 C77.37403418 115.57596802 73.69506485 113.52836981 69.984375 111.40625 C68.93290283 110.82141846 67.88143066 110.23658691 66.7980957 109.6340332 C63.62244926 107.86454153 60.45837529 106.07587223 57.296875 104.28125 C54.64415006 102.78106617 51.99054474 101.28260544 49.33325195 99.79052734 C47.79896365 98.92714133 46.26863942 98.05666218 44.74291992 97.17822266 C39.24428103 94.06352241 37.05087342 93.62675816 31.609375 96.78125 Z " fill="#C5D2E2" transform="translate(114.703125,42.71875)"/>
<path d="M0 0 C3.51324072 1.36533526 6.73610944 2.98092587 10.046875 4.78125 C11.74070312 5.69390625 11.74070312 5.69390625 13.46875 6.625 C16.296875 8.28125 16.296875 8.28125 18.296875 10.28125 C18.54592974 13.09122894 18.67341655 15.79895124 18.703125 18.61328125 C18.71452515 19.44204269 18.72592529 20.27080414 18.7376709 21.12467957 C18.75657954 22.88067512 18.76964235 24.63674179 18.77734375 26.39282227 C18.79673 29.07369778 18.85873713 31.75148748 18.921875 34.43164062 C18.93493837 36.13800262 18.94543803 37.84438656 18.953125 39.55078125 C18.9778186 40.34990433 19.00251221 41.1490274 19.0279541 41.97236633 C18.98428061 47.45833623 18.98428061 47.45833623 16.91674805 49.93344116 C15.25585938 51.3269043 15.25585938 51.3269043 12.296875 53.28125 C14.49417884 54.65682241 16.70177438 56.00588252 18.921875 57.34375 C19.53933594 57.73369141 20.15679687 58.12363281 20.79296875 58.52539062 C23.91680017 60.38324826 25.70650056 61.29236119 29.41015625 61.22265625 C33.53609486 59.87712011 36.9346531 57.72551142 40.61328125 55.4609375 C43.79238069 54.06342945 45.04603659 54.19588094 48.296875 55.28125 C49.63638455 55.93541847 50.9707964 56.60026706 52.296875 57.28125 C52.2654541 56.31300293 52.2654541 56.31300293 52.23339844 55.32519531 C52.15013295 52.39403932 52.09818294 49.46313223 52.046875 46.53125 C52.01335937 45.51546875 51.97984375 44.4996875 51.9453125 43.453125 C51.84706712 35.98647642 51.84706712 35.98647642 53.8515625 32.84375 C57.07463502 30.78427874 60.29361728 28.82678068 63.671875 27.03125 C64.31898438 26.66773437 64.96609375 26.30421875 65.6328125 25.9296875 C69.66833278 23.76547703 72.63786576 22.48057344 77.296875 23.28125 C80.69597704 24.68315636 83.88937799 26.38659229 87.109375 28.15625 C88.41551758 28.84654297 88.41551758 28.84654297 89.74804688 29.55078125 C96.15428438 32.99606876 96.15428438 32.99606876 97.296875 35.28125 C97.12877468 37.07094823 96.90889839 38.85589511 96.6640625 40.63671875 C96.02296973 47.75710847 95.5441649 54.54897804 98.296875 61.28125 C104.67638686 67.87137672 113.48830823 71.21225998 121.79931641 74.73193359 C135.91821961 80.98619576 135.91821961 80.98619576 138.62426758 85.4909668 C138.84622803 86.08176025 139.06818848 86.67255371 139.296875 87.28125 C135.98870624 92.31541985 131.67819284 94.83991855 126.296875 97.28125 C125.636875 97.28125 124.976875 97.28125 124.296875 97.28125 C123.966875 98.27125 123.636875 99.26125 123.296875 100.28125 C121.43359375 101.21411133 121.43359375 101.21411133 118.984375 102.05078125 C112.70934783 104.3983297 107.08198112 107.61576487 101.296875 110.96875 C99.25532518 112.1395267 97.21366431 113.31010978 95.171875 114.48046875 C94.28242188 114.99440186 93.39296875 115.50833496 92.4765625 116.0378418 C88.62279575 118.23623271 85.71937298 119.08390627 81.296875 118.28125 C77.35396747 116.62676612 73.69305493 114.5265892 69.984375 112.40625 C68.93145264 111.82214355 67.87853027 111.23803711 66.79370117 110.63623047 C61.79966052 107.85911568 56.84138528 105.02312268 51.8984375 102.15625 C51.08415283 101.68944824 50.26986816 101.22264648 49.4309082 100.74169922 C47.91874338 99.87183472 46.41414802 98.98863344 44.91870117 98.09033203 C42.0051487 96.41020088 39.94225679 95.25572643 36.53125 95.390625 C34.4140103 96.23455971 32.63039512 97.14810208 30.734375 98.40625 C27.296875 100.28125 27.296875 100.28125 24.921875 100.15625 C23.296875 99.28125 23.296875 99.28125 22.296875 97.28125 C25.596875 95.63125 28.896875 93.98125 32.296875 92.28125 C29.7337056 89.7180806 28.21102249 88.5542216 25.1015625 86.9765625 C24.30363281 86.55761719 23.50570312 86.13867188 22.68359375 85.70703125 C21.00611856 84.83829215 19.32375758 83.97892427 17.63671875 83.12890625 C16.84136719 82.70738281 16.04601562 82.28585938 15.2265625 81.8515625 C14.49679199 81.47789551 13.76702148 81.10422852 13.01513672 80.71923828 C10.71464454 78.79398978 10.61362126 77.19397805 10.296875 74.28125 C19.72544643 66.28125 19.72544643 66.28125 24.296875 66.28125 C24.296875 65.62125 24.296875 64.96125 24.296875 64.28125 C23.58402344 64.01828125 22.87117188 63.7553125 22.13671875 63.484375 C19.18274331 62.2328971 16.59945354 60.6947303 13.859375 59.03125 C9.58093024 56.56509641 9.58093024 56.56509641 4.734375 56.84375 C3.93 57.318125 3.125625 57.7925 2.296875 58.28125 C-0.52957425 59.69447462 -2.9224018 59.45133431 -6.078125 59.46875 C-7.79128906 59.49001953 -7.79128906 59.49001953 -9.5390625 59.51171875 C-20.1898743 59.12101058 -28.91535939 56.29560759 -38.453125 51.65625 C-39.54367188 51.140625 -40.63421875 50.625 -41.7578125 50.09375 C-44.41288963 48.83608188 -47.06071994 47.56527167 -49.703125 46.28125 C-49.13041243 41.69047395 -49.13041243 41.69047395 -47.24780273 39.88745117 C-45.22054175 38.72928226 -43.19598966 37.5766192 -41.140625 36.46875 C-40.10325195 35.85870117 -40.10325195 35.85870117 -39.04492188 35.23632812 C-34.00995266 32.44433681 -30.44940464 31.68431224 -24.703125 32.28125 C-23.383125 32.94125 -22.063125 33.60125 -20.703125 34.28125 C-20.703125 26.03125 -20.703125 17.78125 -20.703125 9.28125 C-18.104375 7.816875 -15.505625 6.3525 -12.828125 4.84375 C-12.01102051 4.38299072 -11.19391602 3.92223145 -10.35205078 3.44750977 C-9.38501221 2.90308228 -9.38501221 2.90308228 -8.3984375 2.34765625 C-7.73859863 1.97584229 -7.07875977 1.60402832 -6.39892578 1.22094727 C-2.83514948 -0.75385478 -2.83514948 -0.75385478 0 0 Z " fill="#1F385F" transform="translate(114.703125,42.71875)"/>
<path d="M0 0 C0.67998047 0.37318359 1.35996094 0.74636719 2.06054688 1.13085938 C6.97549874 3.85049874 6.97549874 3.85049874 8.1875 5.0625 C8.50442138 10.68924457 8.544373 16.31835128 8.5925293 21.953125 C8.61409721 23.85239864 8.648186 25.75157321 8.69506836 27.65039062 C8.76205749 30.38717075 8.78952721 33.12189074 8.80859375 35.859375 C8.83642441 36.70538269 8.86425507 37.55139038 8.89292908 38.42303467 C8.87273218 44.22639867 8.87273218 44.22639867 6.80960083 46.74377441 C5.14868164 48.13769531 5.14868164 48.13769531 2.1875 50.0625 C9.08379716 55.32150529 9.08379716 55.32150529 17.1875 58.0625 C21.17502216 57.10513545 24.35399947 54.96698771 27.64257812 52.58227539 C30.9537227 50.18494851 32.48879457 49.07417103 36.6953125 49.00390625 C40.71623038 50.22277509 43.99206708 51.88522108 47.5625 54.0625 C48.19027344 54.43117187 48.81804687 54.79984375 49.46484375 55.1796875 C53.97197421 57.84697421 53.97197421 57.84697421 55.1875 59.0625 C55.32580866 61.82733778 55.40065882 64.56539556 55.42578125 67.33203125 C55.433853 68.16457932 55.44192474 68.99712738 55.45024109 69.85490417 C55.46409853 71.62110298 55.47481323 73.38732875 55.48266602 75.15356445 C55.49986335 77.85354556 55.54373104 80.55229745 55.58789062 83.25195312 C55.59801855 84.96613681 55.60653434 86.68033093 55.61328125 88.39453125 C55.63078934 89.20195267 55.64829742 90.00937408 55.66633606 90.84126282 C55.6523738 94.45527728 55.56255887 96.57695981 53.31689453 99.48413086 C52.61419434 100.00499268 51.91149414 100.52585449 51.1875 101.0625 C50.36378906 101.69671875 49.54007812 102.3309375 48.69140625 102.984375 C37.56106811 109.90203536 24.9459724 109.80090512 12.328125 107.140625 C9.3252119 106.40646909 6.48246962 105.59593824 3.6875 104.25 C3.0378125 103.95480469 2.388125 103.65960938 1.71875 103.35546875 C0.1875 102.0625 0.1875 102.0625 -0.24609375 99.6015625 C-0.5626686 96.90273084 -0.5626686 96.90273084 -2.87890625 95.48046875 C-4.11447266 94.87138672 -4.11447266 94.87138672 -5.375 94.25 C-6.20128906 93.83105469 -7.02757812 93.41210938 -7.87890625 92.98046875 C-8.51699219 92.67753906 -9.15507812 92.37460938 -9.8125 92.0625 C-9.8125 91.4025 -9.8125 90.7425 -9.8125 90.0625 C-7.34980874 88.62718914 -4.87517723 87.24217987 -2.375 85.875 C-1.68728516 85.46830078 -0.99957031 85.06160156 -0.29101562 84.64257812 C1.80859375 83.51953125 1.80859375 83.51953125 6.1875 82.0625 C9.1575 83.0525 12.1275 84.0425 15.1875 85.0625 C15.1875 77.4725 15.1875 69.8825 15.1875 62.0625 C12.465 60.556875 9.7425 59.05125 6.9375 57.5 C5.66084473 56.78154907 5.66084473 56.78154907 4.35839844 56.04858398 C3.6780957 55.68063721 2.99779297 55.31269043 2.296875 54.93359375 C1.25998535 54.36016235 1.25998535 54.36016235 0.20214844 53.77514648 C-2.26428826 52.90268784 -3.37603116 53.20505276 -5.8125 54.0625 C-19.4105338 58.59517793 -35.02226581 53.71704335 -47.5 48.25 C-48.49394775 47.82348145 -49.48789551 47.39696289 -50.51196289 46.95751953 C-51.44000732 46.53196777 -52.36805176 46.10641602 -53.32421875 45.66796875 C-54.16428467 45.28793701 -55.00435059 44.90790527 -55.86987305 44.51635742 C-57.8125 43.0625 -57.8125 43.0625 -58.59301758 40.3996582 C-58.66544678 39.628396 -58.73787598 38.85713379 -58.8125 38.0625 C-56.1635708 36.36631918 -53.49224308 34.70951817 -50.8125 33.0625 C-50.05710938 32.58554688 -49.30171875 32.10859375 -48.5234375 31.6171875 C-43.79324459 28.77256977 -40.49149343 27.28303031 -34.8125 28.0625 C-33.46188718 28.6934257 -32.12411414 29.35405765 -30.8125 30.0625 C-30.86599609 29.35230713 -30.91949219 28.64211426 -30.97460938 27.91040039 C-32.16433253 8.25918023 -32.16433253 8.25918023 -28.29150391 2.99511719 C-19.30318914 -4.57033694 -10.01828327 -5.71775191 0 0 Z " fill="#1E3C66" transform="translate(272.8125,46.9375)"/>
<path d="M0 0 C1.87615262 1.0099316 3.7142234 2.06949346 5.55102539 3.14916992 C6.49945313 3.69541016 6.49945313 3.69541016 7.46704102 4.25268555 C12.07848872 6.92663325 12.07848872 6.92663325 13.23852539 8.08666992 C13.62738186 13.26660843 13.72372325 18.44777658 13.80834961 23.640625 C13.84495581 25.38784224 13.89947488 27.13478141 13.97241211 28.88085938 C14.56956743 43.39283452 14.56956743 43.39283452 11.34228516 47.49975586 C9.01636638 49.05116593 6.83319874 50.06554731 4.23852539 51.08666992 C2.78864619 52.02616944 1.34940303 52.98248397 -0.07397461 53.96166992 C-8.76079036 58.1422 -20.27805509 57.40385112 -29.45288086 55.19995117 C-32.67892572 54.00849166 -35.68616508 52.62432469 -38.76147461 51.08666992 C-40.04874519 50.51103132 -41.33790135 49.93959551 -42.62866211 49.37182617 C-49.85165616 46.07140158 -49.85165616 46.07140158 -52.76147461 44.08666992 C-53.65209961 41.36791992 -53.65209961 41.36791992 -53.76147461 39.08666992 C-51.13679827 37.60692643 -48.51174968 36.12785049 -45.88647461 34.64916992 C-45.14010742 34.22829102 -44.39374023 33.80741211 -43.62475586 33.3737793 C-42.55161133 32.76953125 -42.55161133 32.76953125 -41.45678711 32.15307617 C-40.79694824 31.78126221 -40.13710938 31.40944824 -39.45727539 31.02636719 C-35.98165382 29.10041449 -33.78134523 28.84547768 -29.76147461 29.08666992 C-28.40761635 29.71060104 -27.06897253 30.37065916 -25.76147461 31.08666992 C-25.77718506 30.40564209 -25.79289551 29.72461426 -25.80908203 29.02294922 C-25.87140683 25.94010711 -25.91045719 22.85739748 -25.94897461 19.77416992 C-25.97411133 18.70231445 -25.99924805 17.63045898 -26.02514648 16.52612305 C-26.03481445 15.4980957 -26.04448242 14.47006836 -26.05444336 13.41088867 C-26.07015381 12.4630249 -26.08586426 11.51516113 -26.10205078 10.53857422 C-25.69533543 7.61051526 -25.07213928 6.86118037 -22.76147461 5.08666992 C-20.34292024 3.56699755 -17.94558918 2.1498555 -15.44897461 0.77416992 C-14.79735352 0.38938477 -14.14573242 0.00459961 -13.47436523 -0.3918457 C-8.065097 -3.36450663 -5.52250372 -2.8634354 0 0 Z " fill="#102848" transform="translate(71.761474609375,104.913330078125)"/>
<path d="M0 0 C2.57377469 1.24426174 5.07680636 2.57824749 7.58203125 3.95507812 C8.45279297 4.41527344 9.32355469 4.87546875 10.22070312 5.34960938 C16.62694063 8.79489689 16.62694063 8.79489689 17.76953125 11.08007812 C17.86659911 12.92180335 17.90029455 14.76704784 17.90234375 16.61132812 C17.90427734 18.29355469 17.90427734 18.29355469 17.90625 20.00976562 C17.90238281 21.18796875 17.89851563 22.36617187 17.89453125 23.58007812 C17.90033203 25.30097656 17.90033203 25.30097656 17.90625 27.05664062 C17.88498385 45.72832236 17.88498385 45.72832236 15.0546875 49.15820312 C13.95447266 49.73828125 13.95447266 49.73828125 12.83203125 50.33007812 C12.02378906 50.78125 11.21554688 51.23242188 10.3828125 51.69726562 C9.08923828 52.38175781 9.08923828 52.38175781 7.76953125 53.08007812 C6.01810372 54.20285442 4.26808182 55.32782664 2.51953125 56.45507812 C-0.94240822 58.66121602 -3.11770394 59.78211479 -7.23046875 59.08007812 C-10.25701879 57.66315395 -13.07463222 55.95593675 -15.91796875 54.20507812 C-16.68947266 53.74488281 -17.46097656 53.2846875 -18.25585938 52.81054688 C-23.90320227 49.40734461 -23.90320227 49.40734461 -26.23046875 47.08007812 C-27.00037797 42.46062282 -27.06548457 37.75559467 -27.23046875 33.08007812 C-27.26446777 32.17290039 -27.2984668 31.26572266 -27.33349609 30.33105469 C-27.4306071 27.37237316 -27.49190398 24.41488935 -27.54296875 21.45507812 C-27.57277832 20.49504883 -27.60258789 19.53501953 -27.63330078 18.54589844 C-27.68964597 11.78207838 -27.68964597 11.78207838 -25.671875 8.69726562 C-22.47059516 6.57673786 -19.246218 4.632248 -15.85546875 2.83007812 C-15.20835937 2.4665625 -14.56125 2.10304688 -13.89453125 1.72851562 C-9.03648591 -0.87680708 -5.38608129 -2.22140481 0 0 Z " fill="#C5D1E2" transform="translate(194.23046875,66.919921875)"/>
<path d="M0 0 C4.03514741 1.87911276 7.83917658 3.83917658 11 7 C12.65816784 7.68753301 14.32459336 8.35561283 16 9 C18.01873446 11.01873446 17.21180162 15.09666343 17.23828125 17.8671875 C17.246353 18.65771515 17.25442474 19.4482428 17.26274109 20.26272583 C17.27659625 21.93896277 17.28731198 23.6152281 17.29516602 25.29150391 C17.31238352 27.85763913 17.35625483 30.42248767 17.40039062 32.98828125 C17.41051677 34.61457383 17.41903312 36.24087739 17.42578125 37.8671875 C17.44328934 38.63602264 17.46079742 39.40485779 17.47883606 40.19699097 C17.45710045 45.52614242 17.45710045 45.52614242 15.15527344 47.91235352 C14.08841309 48.45073853 14.08841309 48.45073853 13 49 C12.03964844 49.50660156 11.07929688 50.01320312 10.08984375 50.53515625 C9.04957031 51.03917969 8.00929687 51.54320312 6.9375 52.0625 C3.7959538 53.58861577 0.90895506 55.06069663 -2 57 C-8.01144938 56.82362496 -11.9598861 54.63751342 -16.875 51.5 C-17.55046875 51.08363281 -18.2259375 50.66726562 -18.921875 50.23828125 C-23.76971726 47.23028274 -23.76971726 47.23028274 -25 46 C-25.08858646 43.26105915 -25.11523479 40.5474673 -25.09765625 37.80859375 C-25.0962413 36.98875504 -25.09482635 36.16891632 -25.09336853 35.32423401 C-25.08775289 32.69528618 -25.07519779 30.06642227 -25.0625 27.4375 C-25.05748701 25.65950643 -25.05292376 23.88151154 -25.04882812 22.10351562 C-25.03777839 17.73564455 -25.02050331 13.36783652 -25 9 C-22.37532366 7.5202565 -19.75027507 6.04118057 -17.125 4.5625 C-16.37863281 4.14162109 -15.63226563 3.72074219 -14.86328125 3.28710938 C-13.79013672 2.68286133 -13.79013672 2.68286133 -12.6953125 2.06640625 C-12.03547363 1.69459229 -11.37563477 1.32277832 -10.69580078 0.93969727 C-6.85574791 -1.18819843 -4.20631983 -1.17808582 0 0 Z " fill="#C7D4E4" transform="translate(128,135)"/>
<path d="M0 0 C0.50917969 0.433125 1.01835938 0.86625 1.54296875 1.3125 C1.5546875 3.5625 1.5546875 3.5625 1.23046875 6.3125 C1.37293111 9.57618306 1.71880074 11.52767478 4.12841797 13.82226562 C6.24501896 15.37942397 8.39800667 16.73909041 10.66796875 18.0625 C11.41522217 18.50464844 12.16247559 18.94679687 12.93237305 19.40234375 C17.82006529 22.03209132 21.0120046 22.93421297 26.54296875 21.3125 C29.35463032 19.92824918 29.35463032 19.92824918 31.85546875 18.1875 C34.40625 16.4921875 34.40625 16.4921875 36.54296875 15.3125 C37.20296875 15.6425 37.86296875 15.9725 38.54296875 16.3125 C37.55296875 17.7975 37.55296875 17.7975 36.54296875 19.3125 C37.31253906 19.51875 38.08210938 19.725 38.875 19.9375 C43.98590608 21.85340941 48.51724371 24.57904046 53.23046875 27.3125 C60.81145468 31.64587609 68.40388416 35.94641304 76.10546875 40.0625 C77.25438599 40.68898438 77.25438599 40.68898438 78.42651367 41.328125 C82.4175961 43.44218007 85.93635077 45.2694475 90.54296875 45.3125 C93.15716189 44.32774172 95.36582657 43.32533535 97.79296875 42 C98.47246582 41.64550781 99.15196289 41.29101562 99.85205078 40.92578125 C106.22906713 37.56869526 112.52156006 34.03919198 118.77832031 30.46362305 C119.50245117 30.05281494 120.22658203 29.64200684 120.97265625 29.21875 C121.93534424 28.66670898 121.93534424 28.66670898 122.91748047 28.10351562 C124.54296875 27.3125 124.54296875 27.3125 126.54296875 27.3125 C126.54296875 26.6525 126.54296875 25.9925 126.54296875 25.3125 C125.90488281 25.22742188 125.26679688 25.14234375 124.609375 25.0546875 C120.33013214 24.01894719 116.48610392 22.24149066 112.48046875 20.4375 C111.67802734 20.08558594 110.87558594 19.73367187 110.04882812 19.37109375 C106.23707215 17.66924751 102.73535407 16.06366133 99.54296875 13.3125 C101.63180365 8.34310504 105.16527625 6.69672827 109.66796875 4.0625 C110.40273437 3.60359375 111.1375 3.1446875 111.89453125 2.671875 C117.07467517 -0.39243549 120.53507976 -1.26953446 126.54296875 -0.6875 C129.48046875 0.1875 129.48046875 0.1875 131.54296875 2.3125 C131.48850421 3.83464063 131.40029964 5.35567168 131.29296875 6.875 C131.23537287 9.61831768 131.23537287 9.61831768 132.54296875 12.3125 C135.07012633 14.59642631 137.85308656 16.29502685 140.79296875 18 C141.55706055 18.44609619 142.32115234 18.89219238 143.10839844 19.35180664 C147.43852705 21.69431343 147.43852705 21.69431343 152.23828125 22.27734375 C156.0402327 20.68567933 159.48301745 18.59471762 163.01953125 16.4921875 C165.54296875 15.3125 165.54296875 15.3125 168.54296875 16.3125 C165.96286679 17.79755869 163.37919316 19.27567311 160.79296875 20.75 C160.06335938 21.17087891 159.33375 21.59175781 158.58203125 22.02539062 C157.87304688 22.42822266 157.1640625 22.83105469 156.43359375 23.24609375 C155.78422852 23.61790771 155.13486328 23.98972168 154.46582031 24.37280273 C151.43060773 25.85611066 149.12620558 26.34920721 145.75 26.13671875 C131.46150087 25.56123259 120.35361109 34.19690806 108.54296875 41.3125 C105.72880519 42.97413771 102.89712431 44.59578838 100.04296875 46.1875 C98.98078125 46.80367187 97.91859375 47.41984375 96.82421875 48.0546875 C91.57768033 50.06586056 87.27386451 50.34426349 81.95947266 48.33642578 C79.11265747 46.96539298 76.36160394 45.48261671 73.60546875 43.9375 C72.60346436 43.39528809 71.60145996 42.85307617 70.5690918 42.29443359 C67.54891276 40.6536944 64.54435825 38.98731963 61.54296875 37.3125 C59.85035904 36.37482195 58.15765745 35.43730973 56.46484375 34.5 C54.9283505 33.64589615 53.39189074 32.79173203 51.85546875 31.9375 C50.76057129 31.33131836 50.76057129 31.33131836 49.64355469 30.71289062 C46.40817097 28.91957212 43.19142177 27.10918847 40.01171875 25.21875 C38.97015625 24.6309375 37.92859375 24.043125 36.85546875 23.4375 C35.55029297 22.66792969 35.55029297 22.66792969 34.21875 21.8828125 C30.72344438 21.13782765 29.62815398 22.43434367 26.75073242 24.28564453 C16.37035008 29.11367595 -0.99321961 26.77333195 -11.44140625 23.24609375 C-23.89690046 18.3096494 -23.89690046 18.3096494 -27.45703125 15.3125 C-28.21386719 12.64526367 -28.21386719 12.64526367 -28.45703125 10.3125 C-25.45110494 8.45384979 -22.4252101 6.63046063 -19.39453125 4.8125 C-18.54697266 4.28785156 -17.69941406 3.76320312 -16.82617188 3.22265625 C-10.96990859 -0.25944624 -6.83436011 -1.91231698 0 0 Z " fill="#0E1724" transform="translate(101.45703125,168.6875)"/>
<path d="M0 0 C0.33 0 0.66 0 1 0 C1.09894543 5.33848672 1.17150414 10.67643869 1.21972656 16.015625 C1.23983061 17.8314748 1.26711835 19.64725995 1.30175781 21.46289062 C1.35033039 24.07438105 1.37298027 26.68501498 1.390625 29.296875 C1.41127014 30.10743347 1.43191528 30.91799194 1.45318604 31.75311279 C1.45462586 35.37734894 1.38142009 37.50519552 -0.8684082 40.42382812 C-1.5718335 40.94396484 -2.27525879 41.46410156 -3 42 C-3.82371094 42.63421875 -4.64742188 43.2684375 -5.49609375 43.921875 C-16.62643189 50.83953536 -29.2415276 50.73840512 -41.859375 48.078125 C-44.8622881 47.34396909 -47.70503038 46.53343824 -50.5 45.1875 C-51.1496875 44.89230469 -51.799375 44.59710938 -52.46875 44.29296875 C-54 43 -54 43 -54.43359375 40.5390625 C-54.7501686 37.84023084 -54.7501686 37.84023084 -57.06640625 36.41796875 C-57.89011719 36.01191406 -58.71382813 35.60585937 -59.5625 35.1875 C-60.38878906 34.76855469 -61.21507812 34.34960938 -62.06640625 33.91796875 C-62.70449219 33.61503906 -63.34257812 33.31210938 -64 33 C-64 32.34 -64 31.68 -64 31 C-61.53730874 29.56468914 -59.06267723 28.17967987 -56.5625 26.8125 C-55.53092773 26.20245117 -55.53092773 26.20245117 -54.47851562 25.58007812 C-52.37890625 24.45703125 -52.37890625 24.45703125 -48 23 C-45.03 23.99 -42.06 24.98 -39 26 C-38.67 18.41 -38.34 10.82 -38 3 C-33.27805255 3.94438949 -30.89098595 5.04410884 -26.875 7.5 C-22.60317592 10.10606892 -22.60317592 10.10606892 -18 12 C-18 23.55 -18 35.1 -18 47 C-12.72 44.36 -7.44 41.72 -2 39 C-1.93941406 36.51984375 -1.87882812 34.0396875 -1.81640625 31.484375 C-1.75457061 29.07825817 -1.6912021 26.67218625 -1.62768555 24.26611328 C-1.58441511 22.59590666 -1.54273451 20.92565806 -1.50268555 19.25537109 C-1.44479149 16.85241045 -1.3811526 14.44965959 -1.31640625 12.046875 C-1.29969376 11.30193787 -1.28298126 10.55700073 -1.26576233 9.78948975 C-1.16938305 6.40490066 -1.03929826 3.2399476 0 0 Z " fill="#10294B" transform="translate(327,106)"/>
<path d="M0 0 C6.50670153 2.60268061 12.73191505 5.86595753 19 9 C19 20.88 19 32.76 19 45 C21.31 44.01 23.62 43.02 26 42 C26.99 42.33 27.98 42.66 29 43 C19.48112893 49.09207749 8.96023348 47.65309313 -1.78027344 45.78466797 C-7.44049632 44.40523543 -12.5298047 41.91420611 -17.75 39.375 C-18.84054688 38.859375 -19.93109375 38.34375 -21.0546875 37.8125 C-23.70976463 36.55483188 -26.35759494 35.28402167 -29 34 C-28.42728743 29.40922395 -28.42728743 29.40922395 -26.54467773 27.60620117 C-24.51741675 26.44803226 -22.49286466 25.2953692 -20.4375 24.1875 C-19.40012695 23.57745117 -19.40012695 23.57745117 -18.34179688 22.95507812 C-13.30682766 20.16308681 -9.74627964 19.40306224 -4 20 C-2.68 20.66 -1.36 21.32 0 22 C0 14.74 0 7.48 0 0 Z " fill="#0F284A" transform="translate(94,55)"/>
<path d="M0 0 C1.66289063 0.81984375 1.66289063 0.81984375 3.359375 1.65625 C4.47828125 2.2646875 5.5971875 2.873125 6.75 3.5 C8.44382812 4.41265625 8.44382812 4.41265625 10.171875 5.34375 C13 7 13 7 15 9 C15.19990227 11.84540142 15.27976976 14.59137784 15.265625 17.4375 C15.26849518 18.6913147 15.26849518 18.6913147 15.27142334 19.97045898 C15.27278536 21.73909811 15.26908776 23.50774723 15.26074219 25.27636719 C15.25004275 27.98915994 15.26063676 30.70129044 15.2734375 33.4140625 C15.27211591 35.1302098 15.26955352 36.84635669 15.265625 38.5625 C15.26967346 39.37710693 15.27372192 40.19171387 15.27789307 41.03100586 C15.22991928 46.77008072 15.22991928 46.77008072 13 49 C11.989375 49.309375 10.97875 49.61875 9.9375 49.9375 C8.968125 50.288125 7.99875 50.63875 7 51 C6.67 51.99 6.34 52.98 6 54 C5.113125 54.144375 4.22625 54.28875 3.3125 54.4375 C0.53293192 54.90950213 -2.23539112 55.44707822 -5 56 C-5 44.12 -5 32.24 -5 20 C-6.65 19.67 -8.3 19.34 -10 19 C-11.8527832 18.15209961 -11.8527832 18.15209961 -13.55078125 17.15234375 C-14.47407227 16.61577148 -14.47407227 16.61577148 -15.41601562 16.06835938 C-16.04185547 15.69517578 -16.66769531 15.32199219 -17.3125 14.9375 C-17.95767578 14.56044922 -18.60285156 14.18339844 -19.26757812 13.79492188 C-20.84878152 12.86962507 -22.4249146 11.93567319 -24 11 C-23.63137158 8.5195403 -23.38430147 7.31934995 -21.42114258 5.68798828 C-19.22837926 4.47867971 -17.03243951 3.28387117 -14.8125 2.125 C-14.05646484 1.69703125 -13.30042969 1.2690625 -12.52148438 0.828125 C-7.66550327 -1.74937754 -5.15290434 -2.65006509 0 0 Z " fill="#1F3E6A" transform="translate(118,44)"/>
<path d="M0 0 C2.60339678 1.1634609 5.00819124 2.57406638 7.4375 4.0625 C8.07365234 4.43955078 8.70980469 4.81660156 9.36523438 5.20507812 C10.91632902 6.12640502 12.45907343 7.06176593 14 8 C14.20417612 13.55175506 14.31488467 19.09494193 14.34179688 24.65039062 C14.3637708 26.53627001 14.41061108 28.42203831 14.48339844 30.30664062 C15.04715601 45.54420243 15.04715601 45.54420243 11.60754395 49.67041016 C7.17611174 53.28380471 1.77603847 56 -4 56 C-4 44.45 -4 32.9 -4 21 C-5.32 20.67 -6.64 20.34 -8 20 C-9.24334239 19.42424958 -10.46781338 18.80627377 -11.671875 18.15234375 C-12.66767578 17.61577148 -12.66767578 17.61577148 -13.68359375 17.06835938 C-14.36550781 16.69517578 -15.04742187 16.32199219 -15.75 15.9375 C-16.44738281 15.56044922 -17.14476562 15.18339844 -17.86328125 14.79492188 C-19.57768302 13.86726612 -21.28913661 12.93416546 -23 12 C-21.8714506 7.6827305 -20.0064743 5.91425048 -16.18945312 3.66796875 C-15.26036133 3.15169922 -15.26036133 3.15169922 -14.3125 2.625 C-13.71244141 2.25761719 -13.11238281 1.89023438 -12.49414062 1.51171875 C-7.84099996 -1.13722277 -5.13117193 -1.16247087 0 0 Z " fill="#203E6A" transform="translate(313,97)"/>
<path d="M0 0 C0.73605469 0.36996094 1.47210938 0.73992187 2.23046875 1.12109375 C6.40498183 3.30709489 10.03329686 5.26346809 13 9 C13.53085482 11.84377148 13.81859853 14.30676956 13.91796875 17.16796875 C13.94788406 17.96221756 13.97779938 18.75646637 14.00862122 19.57478333 C14.05947284 21.254699 14.09823135 22.93501838 14.12573242 24.61547852 C14.18705203 27.16884642 14.34943426 29.70342992 14.51367188 32.25195312 C14.91394862 43.84002896 14.91394862 43.84002896 11.49859619 47.69439697 C7.3754804 51.00721457 1.4157384 55 -4 55 C-3.94650391 54.01717041 -3.89300781 53.03434082 -3.83789062 52.02172852 C-2.17157188 34.64637291 -2.17157188 34.64637291 -6.6015625 18.57080078 C-9.90275586 15.76721377 -13.33286501 14.41923323 -17.4375 13.1640625 C-19.2009375 12.58785156 -19.2009375 12.58785156 -21 12 C-21.72265625 9.92724609 -21.72265625 9.92724609 -22 8 C-7.30323651 -3.72614108 -7.30323651 -3.72614108 0 0 Z " fill="#1F3E6B" transform="translate(70,104)"/>
<path d="M0 0 C0.46921875 0.55171875 0.9384375 1.1034375 1.421875 1.671875 C5.00107958 4.90400519 9.01962604 6.97558917 13.25 9.25 C16.1375 10.8175 19.025 12.385 22 14 C22 25.55 22 37.1 22 49 C22.66 49.33 23.32 49.66 24 50 C18.54040229 50.84999725 14.76350926 47.86582504 10.3125 45.125 C9.54099609 44.66480469 8.76949219 44.20460937 7.97460938 43.73046875 C2.32726648 40.32726648 2.32726648 40.32726648 0 38 C-1.40259216 29.58444707 -1.09590005 20.76104229 -1.125 12.25 C-1.12967285 11.27321289 -1.1343457 10.29642578 -1.13916016 9.29003906 C-1.13706543 8.37448242 -1.1349707 7.45892578 -1.1328125 6.515625 C-1.13168457 5.69352539 -1.13055664 4.87142578 -1.12939453 4.02441406 C-1 2 -1 2 0 0 Z " fill="#A4B6CB" transform="translate(168,76)"/>
<path d="M0 0 C1.0209375 1.051875 1.0209375 1.051875 2.0625 2.125 C2.00803546 3.64714063 1.91983089 5.16817168 1.8125 6.6875 C1.75490412 9.43081768 1.75490412 9.43081768 3.0625 12.125 C5.58965758 14.40892631 8.37261781 16.10752685 11.3125 17.8125 C12.0765918 18.25859619 12.84068359 18.70469238 13.62792969 19.16430664 C17.9580583 21.50681343 17.9580583 21.50681343 22.7578125 22.08984375 C26.55976395 20.49817933 30.0025487 18.40721762 33.5390625 16.3046875 C36.0625 15.125 36.0625 15.125 39.0625 16.125 C36.48239804 17.61005869 33.89872441 19.08817311 31.3125 20.5625 C30.58289063 20.98337891 29.85328125 21.40425781 29.1015625 21.83789062 C28.39257812 22.24072266 27.68359375 22.64355469 26.953125 23.05859375 C26.30375977 23.43040771 25.65439453 23.80222168 24.98535156 24.18530273 C16.38074783 28.39037127 3.03559265 27.77025963 -5.92626953 25.30175781 C-14.45204502 22.25510764 -22.54351328 18.35840619 -29.9375 13.125 C-27.8486651 8.15560504 -24.3151925 6.50922827 -19.8125 3.875 C-19.07773438 3.41609375 -18.34296875 2.9571875 -17.5859375 2.484375 C-11.52681113 -1.09989694 -6.92865155 -2.06385365 0 0 Z " fill="#0F1824" transform="translate(230.9375,168.875)"/>
<path d="M0 0 C0.33 0.99 0.66 1.98 1 3 C3.475 3.99 3.475 3.99 6 5 C10.95 7.64 15.9 10.28 21 13 C21 24.22 21 35.44 21 47 C21.66 47.33 22.32 47.66 23 48 C17.00394255 47.56392309 13.15119206 45.70841904 8.125 42.5 C7.44953125 42.08363281 6.7740625 41.66726562 6.078125 41.23828125 C1.23028274 38.23028274 1.23028274 38.23028274 0 37 C-0.08858646 34.26105915 -0.11523479 31.5474673 -0.09765625 28.80859375 C-0.0962413 27.98875504 -0.09482635 27.16891632 -0.09336853 26.32423401 C-0.08775289 23.69528618 -0.07519779 21.06642227 -0.0625 18.4375 C-0.05748701 16.65950643 -0.05292376 14.88151154 -0.04882812 13.10351562 C-0.03777839 8.73564455 -0.02050331 4.36783652 0 0 Z " fill="#A6B8CD" transform="translate(103,144)"/>
<path d="M0 0 C1.65 1.32 3.3 2.64 5 4 C9.95 6.64 14.9 9.28 20 12 C20 23.55 20 35.1 20 47 C20.66 47.33 21.32 47.66 22 48 C16.45098675 47.51672668 12.78549656 45.39785929 8.1875 42.5 C7.50751953 42.08363281 6.82753906 41.66726562 6.12695312 41.23828125 C1.20659497 38.20659497 1.20659497 38.20659497 0 37 C-1.3390041 29.23943396 -1.15134114 21.28277046 -1.125 13.4375 C-1.12886719 12.25091797 -1.13273438 11.06433594 -1.13671875 9.84179688 C-1.13542969 8.71708984 -1.13414062 7.59238281 -1.1328125 6.43359375 C-1.13168457 5.41322021 -1.13055664 4.39284668 -1.12939453 3.34155273 C-1 1 -1 1 0 0 Z " fill="#A5B7CC" transform="translate(233,144)"/>
<path d="M0 0 C0.33 0 0.66 0 1 0 C1 12.87 1 25.74 1 39 C2.65 39.66 4.3 40.32 6 41 C8.54095741 42.46105051 11.01465988 44.00916243 13.5 45.5625 C15.94360101 46.96757058 18.36108429 48.01983131 21 49 C21 49.33 21 49.66 21 50 C6.69203606 50.35183518 -4.42714247 48.997445 -17.6875 43.1875 C-18.68144775 42.76098145 -19.67539551 42.33446289 -20.69946289 41.89501953 C-21.62750732 41.46946777 -22.55555176 41.04391602 -23.51171875 40.60546875 C-24.35178467 40.22543701 -25.19185059 39.84540527 -26.05737305 39.45385742 C-28 38 -28 38 -28.78051758 35.3371582 C-28.85294678 34.565896 -28.92537598 33.79463379 -29 33 C-26.3510708 31.30381918 -23.67974308 29.64701817 -21 28 C-20.24460938 27.52304688 -19.48921875 27.04609375 -18.7109375 26.5546875 C-13.98074459 23.71006977 -10.67899343 22.22053031 -5 23 C-3.68 23.66 -2.36 24.32 -1 25 C-0.67 16.75 -0.34 8.5 0 0 Z " fill="#0E1725" transform="translate(243,52)"/>
<path d="M0 0 C6 3 12 6 18 9 C18 20.88 18 32.76 18 45 C14 44 14 44 0 36 C0 24.12 0 12.24 0 0 Z " fill="#102A4C" transform="translate(244,55)"/>
<path d="M0 0 C0.33 0 0.66 0 1 0 C0.97268799 1.05912598 0.94537598 2.11825195 0.91723633 3.20947266 C0.83008384 7.15726777 0.81580766 11.10261206 0.82299805 15.05126953 C0.81604237 16.75654239 0.78958897 18.46185558 0.74291992 20.16650391 C0.60100175 25.62955605 0.64158952 30.68342765 2 36 C5.29887458 39.29010636 8.66868946 40.49162159 13 42 C14.36441751 42.9571534 15.70496714 43.9508729 17 45 C18.31836295 45.69580267 19.64791086 46.37224433 21 47 C18.91698835 47.05546481 16.83351082 47.09343165 14.75 47.125 C13.58984375 47.14820313 12.4296875 47.17140625 11.234375 47.1953125 C0.55649385 46.91376167 -8.20325026 44.01872765 -17.75 39.375 C-18.84054688 38.859375 -19.93109375 38.34375 -21.0546875 37.8125 C-23.70976463 36.55483188 -26.35759494 35.28402167 -29 34 C-28.42728743 29.40922395 -28.42728743 29.40922395 -26.54467773 27.60620117 C-24.51741675 26.44803226 -22.49286466 25.2953692 -20.4375 24.1875 C-19.40012695 23.57745117 -19.40012695 23.57745117 -18.34179688 22.95507812 C-13.30682766 20.16308681 -9.74627964 19.40306224 -4 20 C-2.68 20.66 -1.36 21.32 0 22 C0 14.74 0 7.48 0 0 Z " fill="#0D1725" transform="translate(94,55)"/>
<path d="M0 0 C2.69921875 1.16015625 2.69921875 1.16015625 5 3 C5.25 5.63671875 5.25 5.63671875 5 8.6875 C4.96801928 11.93289561 4.96801928 11.93289561 6 15 C9.19363182 17.7713334 12.14219578 19.44248452 15.8984375 21.37890625 C18.5136085 22.74577774 20.1261369 23.78237065 22 26 C19.72132535 28.27867465 14.07009769 27.37148468 10.91479492 27.38500977 C3.4954599 27.24278855 -2.33133074 25.22521095 -9 22 C-10.2920217 21.42624801 -11.58503125 20.85471652 -12.87890625 20.28515625 C-20.10483141 16.97473927 -20.10483141 16.97473927 -23 15 C-23.890625 12.28125 -23.890625 12.28125 -24 10 C-21.37532366 8.5202565 -18.75027507 7.04118057 -16.125 5.5625 C-15.37863281 5.14162109 -14.63226563 4.72074219 -13.86328125 4.28710938 C-12.79013672 3.68286133 -12.79013672 3.68286133 -11.6953125 3.06640625 C-11.03547363 2.69459229 -10.37563477 2.32277832 -9.69580078 1.93969727 C-6.20880002 0.007439 -4.04077563 -0.31692358 0 0 Z " fill="#0E1825" transform="translate(42,134)"/>
<path d="M0 0 C1.71775678 0.92494596 3.42858574 1.86285557 5.1328125 2.8125 C6.01195312 3.28945312 6.89109375 3.76640625 7.796875 4.2578125 C9.9568542 5.43171424 12.10988464 6.61673323 14.2578125 7.8125 C14.2578125 8.8025 14.2578125 9.7925 14.2578125 10.8125 C11.39475952 12.50034559 8.51567981 14.15876216 5.6328125 15.8125 C4.82457031 16.28945312 4.01632813 16.76640625 3.18359375 17.2578125 C-4.76711535 21.7826063 -4.76711535 21.7826063 -9.7421875 20.8125 C-12.8069136 19.61012784 -15.66492178 18.13425663 -18.5546875 16.5625 C-19.33005859 16.16675781 -20.10542969 15.77101563 -20.90429688 15.36328125 C-21.64099609 14.97011719 -22.37769531 14.57695313 -23.13671875 14.171875 C-23.80550049 13.81577148 -24.47428223 13.45966797 -25.16333008 13.09277344 C-27.14388958 11.4867654 -27.37509664 10.28848706 -27.7421875 7.8125 C-9.57782746 -4.80163892 -9.57782746 -4.80163892 0 0 Z " fill="#D9E4F2" transform="translate(196.7421875,68.1875)"/>
<path d="M0 0 C0.33 0 0.66 0 1 0 C0.94650391 1.00788574 0.89300781 2.01577148 0.83789062 3.05419922 C-0.81484422 20.95223171 -0.81484422 20.95223171 3.61767578 37.62304688 C7.79082287 41.54999956 12.58735823 43.35240893 18 45 C18 45.33 18 45.66 18 46 C-8.25176312 46.54251634 -8.25176312 46.54251634 -16 40 C-16.14308594 39.18789062 -16.28617187 38.37578125 -16.43359375 37.5390625 C-16.7501686 34.84023084 -16.7501686 34.84023084 -19.06640625 33.41796875 C-19.89011719 33.01191406 -20.71382813 32.60585937 -21.5625 32.1875 C-22.38878906 31.76855469 -23.21507812 31.34960938 -24.06640625 30.91796875 C-25.02353516 30.46357422 -25.02353516 30.46357422 -26 30 C-26 29.34 -26 28.68 -26 28 C-23.53730874 26.56468914 -21.06267723 25.17967987 -18.5625 23.8125 C-17.53092773 23.20245117 -17.53092773 23.20245117 -16.47851562 22.58007812 C-14.37890625 21.45703125 -14.37890625 21.45703125 -10 20 C-7.03 20.99 -4.06 21.98 -1 23 C-0.67 15.41 -0.34 7.82 0 0 Z " fill="#0E1826" transform="translate(289,109)"/>
<path d="M0 0 C0.73605469 0.43441406 1.47210938 0.86882812 2.23046875 1.31640625 C2.97941406 1.74824219 3.72835937 2.18007812 4.5 2.625 C6.41796875 3.87890625 6.41796875 3.87890625 8.41796875 5.87890625 C10.06788457 6.58601303 11.73359131 7.25834614 13.41796875 7.87890625 C13.41796875 8.86890625 13.41796875 9.85890625 13.41796875 10.87890625 C10.90708201 12.39809823 8.38640746 13.89379155 5.85546875 15.37890625 C5.15099609 15.80816406 4.44652344 16.23742187 3.72070312 16.6796875 C-0.87677539 19.34919116 -4.1427354 20.74534276 -9.58203125 19.87890625 C-12.70805782 18.61978743 -15.59545102 17.04766155 -18.51953125 15.37890625 C-19.29876953 14.94964844 -20.07800781 14.52039063 -20.88085938 14.078125 C-22.78853542 13.02480694 -24.68633345 11.95363256 -26.58203125 10.87890625 C-26.58203125 9.55890625 -26.58203125 8.23890625 -26.58203125 6.87890625 C-23.91120092 5.32733242 -21.21833233 3.81871653 -18.51953125 2.31640625 C-17.76736328 1.87876953 -17.01519531 1.44113281 -16.24023438 0.99023438 C-10.29467024 -2.27853898 -6.43076695 -2.79217869 0 0 Z " fill="#D8E4F2" transform="translate(130.58203125,136.12109375)"/>
<path d="M0 0 C1.69769531 0.85464844 1.69769531 0.85464844 3.4296875 1.7265625 C4.56664063 2.35304688 5.70359375 2.97953125 6.875 3.625 C8.02742188 4.25664063 9.17984375 4.88828125 10.3671875 5.5390625 C11.67042969 6.26222656 11.67042969 6.26222656 13 7 C13 8.65 13 10.3 13 12 C10.75335738 13.31855095 8.50302694 14.62993972 6.25 15.9375 C5.61578125 16.31068359 4.9815625 16.68386719 4.328125 17.06835938 C-1.57430206 20.48070002 -1.57430206 20.48070002 -5 21 C-7.43946405 20.01142101 -9.63312009 18.98839173 -11.9375 17.75 C-12.54529297 17.43675781 -13.15308594 17.12351562 -13.77929688 16.80078125 C-17.26326228 14.98926957 -20.65540828 13.05625753 -24 11 C-23.63137158 8.5195403 -23.38430147 7.31934995 -21.42114258 5.68798828 C-19.22837926 4.47867971 -17.03243951 3.28387117 -14.8125 2.125 C-14.05646484 1.69703125 -13.30042969 1.2690625 -12.52148438 0.828125 C-7.66606794 -1.74907782 -5.15010352 -2.65541294 0 0 Z " fill="#2F4E7D" transform="translate(118,44)"/>
<path d="M0 0 C3.375 1.5 3.375 1.5 6 3 C6 3.66 6 4.32 6 5 C6.7425 5.28875 7.485 5.5775 8.25 5.875 C10.56739797 6.82302644 12.77917115 7.84845911 15 9 C14.62747377 11.50656938 14.35088267 12.69789858 12.3984375 14.37890625 C-0.08832526 21.68293929 -0.08832526 21.68293929 -7 21 C-9.76080436 19.89660638 -12.29897379 18.47772046 -14.875 17 C-15.56335938 16.6184375 -16.25171875 16.236875 -16.9609375 15.84375 C-18.64692745 14.90708892 -20.32436814 13.95506752 -22 13 C-22 11.68 -22 10.36 -22 9 C-20.89591797 8.40251953 -20.89591797 8.40251953 -19.76953125 7.79296875 C-18.79371094 7.26316406 -17.81789062 6.73335937 -16.8125 6.1875 C-15.84957031 5.66542969 -14.88664063 5.14335937 -13.89453125 4.60546875 C-12.0090498 3.5596754 -10.14837367 2.46742319 -8.3203125 1.32421875 C-5.2790121 -0.41147289 -3.46061723 -0.42374905 0 0 Z " fill="#D8E4F2" transform="translate(257,134)"/>
<path d="M0 0 C2.1953125 1.828125 2.1953125 1.828125 2.515625 4.71875 C2.45117188 5.82734375 2.38671875 6.9359375 2.3203125 8.078125 C2.30223517 11.5723158 2.30223517 11.5723158 3.1953125 14.828125 C5.87183335 17.33470802 8.45149938 18.83184683 11.7265625 20.4609375 C14.1953125 21.828125 14.1953125 21.828125 15.1953125 24.828125 C12.1953125 26.828125 12.1953125 26.828125 8.88574219 26.64624023 C5.12256447 25.81199781 2.480424 24.64873207 -0.8515625 22.73828125 C-1.94339844 22.11888672 -3.03523438 21.49949219 -4.16015625 20.86132812 C-5.28035156 20.21099609 -6.40054688 19.56066406 -7.5546875 18.890625 C-8.69035156 18.24416016 -9.82601562 17.59769531 -10.99609375 16.93164062 C-19.0478455 12.33268634 -19.0478455 12.33268634 -22.8046875 9.828125 C-22.8046875 8.508125 -22.8046875 7.188125 -22.8046875 5.828125 C-20.41766907 4.45596472 -18.02213696 3.10568521 -15.6171875 1.765625 C-14.94365234 1.37568359 -14.27011719 0.98574219 -13.57617188 0.58398438 C-8.16013808 -2.40143913 -5.74561964 -2.40067673 0 0 Z " fill="#102645" transform="translate(165.8046875,99.171875)"/>
<path d="M0 0 C3.24844459 1.6242223 5.46320829 3.46320829 8 6 C9.3303125 6.7425 9.3303125 6.7425 10.6875 7.5 C11.450625 7.995 12.21375 8.49 13 9 C13 9.99 13 10.98 13 12 C10.82267553 13.35290064 8.635585 14.68159441 6.4375 16 C5.82841797 16.3815625 5.21933594 16.763125 4.59179688 17.15625 C0.25405761 19.72676216 -2.84427462 20.73001421 -8 20 C-10.7956233 18.90507373 -13.34460404 17.50637332 -15.9375 16 C-16.62134766 15.6184375 -17.30519531 15.236875 -18.00976562 14.84375 C-19.68061625 13.90900839 -21.34139976 12.95631005 -23 12 C-21.8714506 7.6827305 -20.0064743 5.91425048 -16.18945312 3.66796875 C-15.26036133 3.15169922 -15.26036133 3.15169922 -14.3125 2.625 C-13.71244141 2.25761719 -13.11238281 1.89023438 -12.49414062 1.51171875 C-7.95050227 -1.07488526 -5.01839995 -1.26831979 0 0 Z " fill="#2F4F7E" transform="translate(313,97)"/>
<path d="M0 0 C0.73605469 0.36996094 1.47210938 0.73992187 2.23046875 1.12109375 C6.38538872 3.29683488 9.91810321 5.38212115 13 9 C11.63393487 13.09819538 8.93812287 14.20138726 5.375 16.25 C4.77042969 16.62640625 4.16585937 17.0028125 3.54296875 17.390625 C0.21487851 19.32077542 -1.62409628 20.00618263 -5.5625 19.94140625 C-9.22872804 18.93735971 -12.10113073 17.61306291 -15.375 15.6875 C-16.41398437 15.09324219 -17.45296875 14.49898437 -18.5234375 13.88671875 C-21 12 -21 12 -21.8515625 9.76953125 C-21.90054688 9.18558594 -21.94953125 8.60164063 -22 8 C-7.30323651 -3.72614108 -7.30323651 -3.72614108 0 0 Z " fill="#2F4F7E" transform="translate(70,104)"/>
<path d="M0 0 C2.04368772 1.00592419 4.00910151 2.09315046 5.97851562 3.23730469 C6.66236328 3.61886719 7.34621094 4.00042969 8.05078125 4.39355469 C9.72163188 5.3282963 11.38241538 6.28099464 13.04101562 7.23730469 C13.04101562 8.55730469 13.04101562 9.87730469 13.04101562 11.23730469 C10.697804 13.11308028 8.5384068 14.59711934 5.97851562 16.11230469 C5.32173828 16.54027344 4.66496094 16.96824219 3.98828125 17.40917969 C0.40305481 19.57091228 -1.26288091 20.33195033 -5.52148438 19.75292969 C-9.20661308 18.12812294 -12.52632605 16.30232721 -15.89648438 14.11230469 C-16.48494141 13.73976563 -17.07339844 13.36722656 -17.6796875 12.98339844 C-19.11102401 12.07572163 -20.53573084 11.15760397 -21.95898438 10.23730469 C-21.81054688 8.47167969 -21.81054688 8.47167969 -20.95898438 6.23730469 C-18.48242188 4.31542969 -18.48242188 4.31542969 -15.33398438 2.48730469 C-14.31046875 1.87371094 -13.28695312 1.26011719 -12.23242188 0.62792969 C-7.90604233 -1.21000721 -4.48281688 -1.74530408 0 0 Z " fill="#304F7F" transform="translate(265.958984375,44.7626953125)"/>
<path d="M0 0 C0.66 0.33 1.32 0.66 2 1 C1.01 2.485 1.01 2.485 0 4 C0.76957031 4.20625 1.53914062 4.4125 2.33203125 4.625 C7.44293733 6.54090941 11.97427496 9.26654046 16.6875 12 C24.26848593 16.33337609 31.86091541 20.63391304 39.5625 24.75 C40.71141724 25.37648437 40.71141724 25.37648437 41.88354492 26.015625 C45.87498662 28.12987037 49.39293331 29.9506606 54 30 C56.57470189 29.03671661 58.73727288 28.05462816 61.125 26.75 C62.14194946 26.22104126 62.14194946 26.22104126 63.17944336 25.68139648 C67.24437229 23.54709138 71.24710004 21.30566556 75.24609375 19.05078125 C76.12958496 18.55545898 77.01307617 18.06013672 77.92333984 17.54980469 C79.65038853 16.57652249 81.3711053 15.59189641 83.08447266 14.59472656 C87.82305334 11.90745881 91.54215882 10.34432018 97 10 C97 10.66 97 11.32 97 12 C89.71810741 16.10033216 82.42520114 20.18030659 75.12451172 24.24707031 C72.5089581 25.7144617 69.90917926 27.20387726 67.31640625 28.7109375 C66.04449472 29.43268635 64.77238181 30.15408054 63.5 30.875 C62.4378125 31.49117187 61.375625 32.10734375 60.28125 32.7421875 C55.03471158 34.75336056 50.73089576 35.03176349 45.41650391 33.02392578 C42.56968213 31.65288981 39.81856142 30.17026291 37.0625 28.625 C36.06412109 28.08423828 35.06574219 27.54347656 34.03710938 26.98632812 C31.01407302 25.34282907 28.00624616 23.67397232 25 22 C23.24921213 21.03812594 21.49794075 20.07713123 19.74609375 19.1171875 C15.48221016 16.77126216 11.23566582 14.39643025 7 12 C6.34427002 11.63342285 5.68854004 11.2668457 5.01293945 10.88916016 C1.96239605 9.17276393 -0.69742255 7.66614231 -3 5 C-3.66 4.34 -4.32 3.68 -5 3 C-2.625 1.4375 -2.625 1.4375 0 0 Z " fill="#1B3155" transform="translate(138,184)"/>
<path d="M0 0 C0.0270817 2.72923388 0.04687847 5.45819637 0.0625 8.1875 C0.07087891 8.95642578 0.07925781 9.72535156 0.08789062 10.51757812 C0.12527017 19.22701279 0.12527017 19.22701279 -1 22 C-3.72265625 23.80078125 -3.72265625 23.80078125 -7.0625 25.3125 C-8.16722656 25.82425781 -9.27195312 26.33601563 -10.41015625 26.86328125 C-11.26480469 27.23839844 -12.11945313 27.61351562 -13 28 C-13 27.01 -13 26.02 -13 25 C-10.5 22.8125 -10.5 22.8125 -8 21 C-9.65 21.66 -11.3 22.32 -13 23 C-13.33 20.69 -13.66 18.38 -14 16 C-12.68 15.01 -11.36 14.02 -10 13 C-10.99 12.67 -11.98 12.34 -13 12 C-12.34 10.35 -11.68 8.7 -11 7 C-11.66 7 -12.32 7 -13 7 C-13 6.01 -13 5.02 -13 4 C-11.40233897 3.13372601 -9.79660056 2.28233535 -8.1875 1.4375 C-7.29417969 0.96183594 -6.40085937 0.48617187 -5.48046875 -0.00390625 C-3 -1 -3 -1 0 0 Z " fill="#204271" transform="translate(326,117)"/>
<path d="M0 0 C0.33 0 0.66 0 1 0 C2.5273432 13.83420474 2.5273432 13.83420474 1 20 C-2.49511994 23.77616029 -6.13207792 25.46428649 -11 27 C-11.33 26.01 -11.66 25.02 -12 24 C-11.01 23.34 -10.02 22.68 -9 22 C-9.99 22 -10.98 22 -12 22 C-11.67 20.68 -11.34 19.36 -11 18 C-11.66 17.67 -12.32 17.34 -13 17 C-13 16.01 -13 15.02 -13 14 C-12.34 13.67 -11.68 13.34 -11 13 C-11.66 12.67 -12.32 12.34 -13 12 C-12.7734375 10.16015625 -12.7734375 10.16015625 -12 8 C-10.0390625 6.62109375 -10.0390625 6.62109375 -7.625 5.4375 C-4.55011845 3.91007513 -2.35662019 2.49396921 0 0 Z " fill="#204270" transform="translate(82,124)"/>
<path d="M0 0 C4.875 1.875 4.875 1.875 6 3 C6.38885647 8.1799385 6.48519786 13.36110666 6.56982422 18.55395508 C6.60643042 20.30117232 6.66094949 22.04811149 6.73388672 23.79418945 C7.32977388 38.27534581 7.32977388 38.27534581 4.14111328 42.41088867 C1.80778062 43.98483115 -0.36737367 45.02266586 -3 46 C-3.97710937 46.56589844 -4.95421875 47.13179687 -5.9609375 47.71484375 C-6.75757812 48.11832031 -7.55421875 48.52179688 -8.375 48.9375 C-9.59316406 49.56978516 -9.59316406 49.56978516 -10.8359375 50.21484375 C-13 51 -13 51 -16 50 C-15.505 49.505 -15.505 49.505 -15 49 C-14.84011509 46.48119483 -14.74065775 43.98657734 -14.68359375 41.46484375 C-14.66281265 40.71159317 -14.64203156 39.95834259 -14.62062073 39.18226624 C-14.55504575 36.7674401 -14.49620379 34.35250202 -14.4375 31.9375 C-14.3943223 30.30402471 -14.35070827 28.6705609 -14.30664062 27.03710938 C-14.19935638 23.02485536 -14.09811179 19.01248836 -14 15 C-13.67 15 -13.34 15 -13 15 C-13 26.22 -13 37.44 -13 49 C-7.72 46.03 -2.44 43.06 3 40 C3.06885239 34.78506888 3.12858954 29.57171288 3.16479492 24.35668945 C3.17988641 22.58254657 3.20036191 20.80844102 3.22631836 19.03442383 C3.26268641 16.48509513 3.27972238 13.93625941 3.29296875 11.38671875 C3.30845261 10.59287277 3.32393646 9.79902679 3.33988953 8.98112488 C3.39615434 4.68719981 3.39615434 4.68719981 1.48168945 0.97583008 C0.99273193 0.65380615 0.50377441 0.33178223 0 0 Z " fill="#132849" transform="translate(79,110)"/>
<path d="M0 0 C0.50789062 0.38671875 1.01578125 0.7734375 1.5390625 1.171875 C4.8008845 3.63962049 8.04047774 6.06503857 11.5 8.25 C12.325 8.8275 13.15 9.405 14 10 C14 10.66 14 11.32 14 12 C10.90433919 14.06377387 9.82346869 14.36611529 6.25 13.75 C1.13843011 12.04614337 -3.62401843 9.11133008 -8 6 C-8 5.34 -8 4.68 -8 4 C-5.36 2.68 -2.72 1.36 0 0 Z " fill="#0D192A" transform="translate(167,112)"/>
<path d="M0 0 C4.30764815 1.56641751 8.06171464 3.68336156 12 6 C12 8.64 12 11.28 12 14 C10.01282506 13.10082582 8.03541115 12.1800538 6.0625 11.25 C4.96035156 10.73953125 3.85820312 10.2290625 2.72265625 9.703125 C0 8 0 8 -0.90625 5.9375 C-1.01143009 3.76377809 -0.66387201 2.06537959 0 0 Z " fill="#133158" transform="translate(246,72)"/>
<path d="M0 0 C-0.33 1.32 -0.66 2.64 -1 4 C-0.34 4 0.32 4 1 4 C1 4.99 1 5.98 1 7 C-2.96 8.98 -6.92 10.96 -11 13 C-11.33 10.69 -11.66 8.38 -12 6 C-10.70903219 5.18639005 -9.41720125 4.37414954 -8.125 3.5625 C-7.04605469 2.88380859 -7.04605469 2.88380859 -5.9453125 2.19140625 C-2.36721311 0 -2.36721311 0 0 0 Z " fill="#204474" transform="translate(324,127)"/>
<path d="M0 0 C4.8274799 1.41292095 8.7162359 3.42974154 13 6 C13 6.99 13 7.98 13 9 C12.34 9 11.68 9 11 9 C11.33 10.32 11.66 11.64 12 13 C7.39256115 11.6835889 3.62216462 10.19095455 0 7 C-0.375 3.25 -0.375 3.25 0 0 Z " fill="#133259" transform="translate(50,122)"/>
<path d="M0 0 C0.33 0 0.66 0 1 0 C1 12.54 1 25.08 1 38 C0.67 38 0.34 38 0 38 C-0.66 31.73 -1.32 25.46 -2 19 C-3.32 19.33 -4.64 19.66 -6 20 C-6 19.34 -6 18.68 -6 18 C-4.68 17.67 -3.36 17.34 -2 17 C-2.20625 16.443125 -2.4125 15.88625 -2.625 15.3125 C-3.11442853 12.2943574 -2.1545231 10.82216758 -1 8 C-0.5436188 5.33612278 -0.27373139 2.69169201 0 0 Z " fill="#193356" transform="translate(132,53)"/>
<path d="M0 0 C0.33 0 0.66 0 1 0 C1 11.22 1 22.44 1 34 C6.18064493 31.00180679 6.18064493 31.00180679 11.35107422 27.98608398 C11.9957666 27.61813721 12.64045898 27.25019043 13.3046875 26.87109375 C13.96452637 26.48880615 14.62436523 26.10651855 15.30419922 25.71264648 C15.86381348 25.47747314 16.42342773 25.2422998 17 25 C17.66 25.33 18.32 25.66 19 26 C16.63192527 27.49134478 14.25656428 28.96797672 11.875 30.4375 C10.87726563 31.06881836 10.87726563 31.06881836 9.859375 31.71289062 C5.8982666 34.14004038 2.73012995 35.5947708 -2 36 C-1.67 35.34 -1.34 34.68 -1 34 C-0.84355828 31.44893971 -0.74178611 28.92081337 -0.68359375 26.3671875 C-0.66281265 25.61535187 -0.64203156 24.86351624 -0.62062073 24.08889771 C-0.55517295 21.68435915 -0.49626262 19.27971033 -0.4375 16.875 C-0.39431023 15.24608229 -0.35069579 13.61717578 -0.30664062 11.98828125 C-0.19949649 7.99230085 -0.09821567 3.99620941 0 0 Z " fill="#172E50" transform="translate(65,125)"/>
<path d="M0 0 C0.66 0.33 1.32 0.66 2 1 C1.34 1.66 0.68 2.32 0 3 C1.299375 3.70576172 1.299375 3.70576172 2.625 4.42578125 C3.73875 5.04839844 4.8525 5.67101562 6 6.3125 C7.11375 6.92738281 8.2275 7.54226562 9.375 8.17578125 C10.24125 8.77777344 11.1075 9.37976563 12 10 C12 10.99 12 11.98 12 13 C8.11908033 13 5.60326704 11.34682267 2.3125 9.5 C1.70599609 9.16613281 1.09949219 8.83226563 0.47460938 8.48828125 C-1.02003231 7.664463 -2.51043671 6.83296549 -4 6 C-2.25 1.125 -2.25 1.125 0 0 Z " fill="#1A2F53" transform="translate(127,93)"/>
<path d="M0 0 C5.68911715 -0.29426468 8.97718116 0.01022688 14 3 C14.66 3.33 15.32 3.66 16 4 C15.01 5.485 15.01 5.485 14 7 C9.0276578 5.50829734 4.58154261 3.39542583 0 1 C0 0.67 0 0.34 0 0 Z " fill="#1D355D" transform="translate(276,102)"/>
<path d="M0 0 C0.33 0 0.66 0 1 0 C1 5.94 1 11.88 1 18 C0.67 18 0.34 18 0 18 C-0.33 15.69 -0.66 13.38 -1 11 C-2.32 11.33 -3.64 11.66 -5 12 C-5 11.34 -5 10.68 -5 10 C-3.68 9.67 -2.36 9.34 -1 9 C-1.20625 8.443125 -1.4125 7.88625 -1.625 7.3125 C-2.10695211 4.340462 -1.26565028 2.68020059 0 0 Z " fill="#1D3B66" transform="translate(131,61)"/>
<path d="M0 0 C4.8274799 1.41292095 8.7162359 3.42974154 13 6 C13 6.99 13 7.98 13 9 C8.33138019 7.39516194 3.90741833 5.02509806 0 2 C0 1.34 0 0.68 0 0 Z " fill="#889CB8" transform="translate(107,167)"/>
<path d="M0 0 C4.8274799 1.41292095 8.7162359 3.42974154 13 6 C12.67 6.99 12.34 7.98 12 9 C9.99492073 7.88407791 7.99603904 6.75701288 6 5.625 C4.88625 4.99851562 3.7725 4.37203125 2.625 3.7265625 C1.75875 3.15679687 0.8925 2.58703125 0 2 C0 1.34 0 0.68 0 0 Z " fill="#879CB8" transform="translate(172,87)"/>
<path d="M0 0 C4.8274799 1.41292095 8.7162359 3.42974154 13 6 C12.67 6.99 12.34 7.98 12 9 C9.99492073 7.88407791 7.99603904 6.75701288 6 5.625 C4.88625 4.99851562 3.7725 4.37203125 2.625 3.7265625 C1.75875 3.15679687 0.8925 2.58703125 0 2 C0 1.34 0 0.68 0 0 Z " fill="#8599B6" transform="translate(172,107)"/>
<path d="M0 0 C4.8274799 1.41292095 8.7162359 3.42974154 13 6 C13 6.66 13 7.32 13 8 C9.70319035 7.34215037 7.15882078 6.10579427 4.25 4.4375 C3.45078125 3.98246094 2.6515625 3.52742187 1.828125 3.05859375 C1.22484375 2.70925781 0.6215625 2.35992187 0 2 C0 1.34 0 0.68 0 0 Z " fill="#8A9DB9" transform="translate(107,154)"/>
<path d="M0 0 C0.33 0.99 0.66 1.98 1 3 C-2.63 4.98 -6.26 6.96 -10 9 C-9 5 -9 5 -6.93359375 3.515625 C-6.10988281 3.09796875 -5.28617187 2.6803125 -4.4375 2.25 C-3.61121094 1.82203125 -2.78492187 1.3940625 -1.93359375 0.953125 C-1.29550781 0.63859375 -0.65742187 0.3240625 0 0 Z " fill="#2D68AA" transform="translate(80,137)"/>
<path d="M0 0 C4.30764815 1.56641751 8.06171464 3.68336156 12 6 C12 6.66 12 7.32 12 8 C7.76570244 6.68938409 3.92592596 5.05643741 0 3 C0 2.01 0 1.02 0 0 Z " fill="#2B66A6" transform="translate(50,132)"/>
<path d="M0 0 C1.98498051 0.92512666 3.96286018 1.86550237 5.9375 2.8125 C7.03964844 3.33457031 8.14179688 3.85664062 9.27734375 4.39453125 C12 6 12 6 13 9 C8.50202887 7.31326082 4.27113698 5.18326108 0 3 C0 2.01 0 1.02 0 0 Z " fill="#859AB6" transform="translate(172,100)"/>
<path d="M0 0 C3.96 1.98 7.92 3.96 12 6 C12 6.66 12 7.32 12 8 C7.24518354 7.42365861 4.02951788 5.44931479 0 3 C0 2.01 0 1.02 0 0 Z " fill="#2B65A6" transform="translate(98,62)"/>
<path d="M0 0 C-0.25390625 1.859375 -0.25390625 1.859375 -1 4 C-2.77734375 5.265625 -2.77734375 5.265625 -4.9375 6.25 C-6.00291016 6.75273438 -6.00291016 6.75273438 -7.08984375 7.265625 C-9 8 -9 8 -11 8 C-9.83630874 4.50892621 -9.11026462 4.14777237 -6.0625 2.3125 C-5.35222656 1.87550781 -4.64195312 1.43851563 -3.91015625 0.98828125 C-2 0 -2 0 0 0 Z " fill="#2C66A7" transform="translate(278,62)"/>
<path d="M0 0 C4.8274799 1.41292095 8.7162359 3.42974154 13 6 C13 6.66 13 7.32 13 8 C8.1725201 6.58707905 4.2837641 4.57025846 0 2 C0 1.34 0 0.68 0 0 Z " fill="#889CB7" transform="translate(107,174)"/>
<path d="M0 0 C4.30764815 1.56641751 8.06171464 3.68336156 12 6 C12 6.66 12 7.32 12 8 C7.76570244 6.68938409 3.92592596 5.05643741 0 3 C0 2.01 0 1.02 0 0 Z " fill="#2B66A6" transform="translate(50,142)"/>
<path d="M0 0 C4.30764815 1.56641751 8.06171464 3.68336156 12 6 C12 6.66 12 7.32 12 8 C7.76570244 6.68938409 3.92592596 5.05643741 0 3 C0 2.01 0 1.02 0 0 Z " fill="#2B67A7" transform="translate(50,137)"/>
<path d="M0 0 C0.33 0.99 0.66 1.98 1 3 C-0.45537568 3.83848804 -1.91440373 4.67063934 -3.375 5.5 C-4.59316406 6.19609375 -4.59316406 6.19609375 -5.8359375 6.90625 C-8 8 -8 8 -10 8 C-8.60344703 4.50126729 -7.28739516 3.29108169 -3.875 1.75 C-3.15054688 1.41484375 -2.42609375 1.0796875 -1.6796875 0.734375 C-1.12539062 0.49203125 -0.57109375 0.2496875 0 0 Z " fill="#2D69AB" transform="translate(80,132)"/>
<path d="M0 0 C3.96 1.98 7.92 3.96 12 6 C12 6.66 12 7.32 12 8 C7.24518354 7.42365861 4.02951788 5.44931479 0 3 C0 2.01 0 1.02 0 0 Z " fill="#2C67A8" transform="translate(293,121)"/>
<path d="M0 0 C4.8274799 1.41292095 8.7162359 3.42974154 13 6 C13 6.66 13 7.32 13 8 C8.1725201 6.58707905 4.2837641 4.57025846 0 2 C0 1.34 0 0.68 0 0 Z " fill="#869AB6" transform="translate(172,94)"/>
<path d="M0 0 C0 0.99 0 1.98 0 3 C-5.445 5.475 -5.445 5.475 -11 8 C-11 7.01 -11 6.02 -11 5 C-9.54462432 4.16151196 -8.08559627 3.32936066 -6.625 2.5 C-5.81289062 2.0359375 -5.00078125 1.571875 -4.1640625 1.09375 C-2 0 -2 0 0 0 Z " fill="#2D68AA" transform="translate(129,78)"/>
<path d="M0 0 C-0.25390625 1.859375 -0.25390625 1.859375 -1 4 C-2.77734375 5.265625 -2.77734375 5.265625 -4.9375 6.25 C-6.00291016 6.75273438 -6.00291016 6.75273438 -7.08984375 7.265625 C-9 8 -9 8 -11 8 C-9.83630874 4.50892621 -9.11026462 4.14777237 -6.0625 2.3125 C-5.35222656 1.87550781 -4.64195312 1.43851562 -3.91015625 0.98828125 C-2 0 -2 0 0 0 Z " fill="#2D67A9" transform="translate(278,78)"/>
<path d="M0 0 C4.60428934 1.31551124 8.18320388 3.09196486 12 6 C12 6.66 12 7.32 12 8 C7.39571066 6.68448876 3.81679612 4.90803514 0 2 C0 1.34 0 0.68 0 0 Z " fill="#2B67A7" transform="translate(98,73)"/>
<path d="M0 0 C4.23429756 1.31061591 8.07407404 2.94356259 12 5 C12 5.99 12 6.98 12 8 C7.69235185 6.43358249 3.93828536 4.31663844 0 2 C0 1.34 0 0.68 0 0 Z " fill="#2B67A8" transform="translate(98,68)"/>
<path d="M0 0 C4.30764815 1.56641751 8.06171464 3.68336156 12 6 C12 6.66 12 7.32 12 8 C7.39571066 6.68448876 3.81679612 4.90803514 0 2 C0 1.34 0 0.68 0 0 Z " fill="#2B65A4" transform="translate(246,62)"/>
<path d="M0 0 C4.8274799 1.41292095 8.7162359 3.42974154 13 6 C13 6.66 13 7.32 13 8 C8.1725201 6.58707905 4.2837641 4.57025846 0 2 C0 1.34 0 0.68 0 0 Z " fill="#879BB7" transform="translate(107,161)"/>
<path d="M0 0 C4.23429756 1.31061591 8.07407404 2.94356259 12 5 C11.67 5.99 11.34 6.98 11 8 C7.37 6.02 3.74 4.04 0 2 C0 1.34 0 0.68 0 0 Z " fill="#2B67A7" transform="translate(293,137)"/>
<path d="M0 0 C4.23429756 1.31061591 8.07407404 2.94356259 12 5 C11.67 5.99 11.34 6.98 11 8 C7.37 6.02 3.74 4.04 0 2 C0 1.34 0 0.68 0 0 Z " fill="#2C69AA" transform="translate(293,132)"/>
<path d="M0 0 C-1 3 -1 3 -3.28515625 4.38671875 C-4.20167969 4.81597656 -5.11820312 5.24523437 -6.0625 5.6875 C-6.98160156 6.12449219 -7.90070313 6.56148437 -8.84765625 7.01171875 C-9.55792969 7.33785156 -10.26820313 7.66398438 -11 8 C-10.74609375 6.140625 -10.74609375 6.140625 -10 4 C-8.22265625 2.734375 -8.22265625 2.734375 -6.0625 1.75 C-5.35222656 1.41484375 -4.64195312 1.0796875 -3.91015625 0.734375 C-2 0 -2 0 0 0 Z " fill="#2E69AB" transform="translate(324,127)"/>
<path d="M0 0 C4.23429756 1.31061591 8.07407404 2.94356259 12 5 C11.67 5.99 11.34 6.98 11 8 C7.37 6.02 3.74 4.04 0 2 C0 1.34 0 0.68 0 0 Z " fill="#2B66A7" transform="translate(293,127)"/>
<path d="M0 0 C0 0.99 0 1.98 0 3 C-5.445 5.475 -5.445 5.475 -11 8 C-11 7.01 -11 6.02 -11 5 C-9.54462432 4.16151196 -8.08559627 3.32936066 -6.625 2.5 C-5.81289062 2.0359375 -5.00078125 1.571875 -4.1640625 1.09375 C-2 0 -2 0 0 0 Z " fill="#2D67A9" transform="translate(81,122)"/>
<path d="M0 0 C4.60428934 1.31551124 8.18320388 3.09196486 12 6 C12 6.66 12 7.32 12 8 C7.69235185 6.43358249 3.93828536 4.31663844 0 2 C0 1.34 0 0.68 0 0 Z " fill="#2C68A9" transform="translate(50,122)"/>
<path d="M0 0 C3.96 1.98 7.92 3.96 12 6 C12 6.66 12 7.32 12 8 C7.76570244 6.68938409 3.92592596 5.05643741 0 3 C0 2.01 0 1.02 0 0 Z " fill="#2C68A9" transform="translate(293,116)"/>
<path d="M0 0 C0.33 0.99 0.66 1.98 1 3 C-0.45537568 3.83848804 -1.91440373 4.67063934 -3.375 5.5 C-4.59316406 6.19609375 -4.59316406 6.19609375 -5.8359375 6.90625 C-8 8 -8 8 -10 8 C-10 7.01 -10 6.02 -10 5 C-6.7 3.35 -3.4 1.7 0 0 Z " fill="#2D69AA" transform="translate(323,116)"/>
<path d="M0 0 C3.96 1.98 7.92 3.96 12 6 C12 6.66 12 7.32 12 8 C7.76570244 6.68938409 3.92592596 5.05643741 0 3 C0 2.01 0 1.02 0 0 Z " fill="#2B67A9" transform="translate(98,83)"/>
<path d="M0 0 C0 0.99 0 1.98 0 3 C-5.445 5.475 -5.445 5.475 -11 8 C-11 7.01 -11 6.02 -11 5 C-9.54462432 4.16151196 -8.08559627 3.32936066 -6.625 2.5 C-5.81289062 2.0359375 -5.00078125 1.571875 -4.1640625 1.09375 C-2 0 -2 0 0 0 Z " fill="#2E68AA" transform="translate(129,83)"/>
<path d="M0 0 C0 0.99 0 1.98 0 3 C-5.445 5.475 -5.445 5.475 -11 8 C-11 7.01 -11 6.02 -11 5 C-9.54462432 4.16151196 -8.08559627 3.32936066 -6.625 2.5 C-5.81289063 2.0359375 -5.00078125 1.571875 -4.1640625 1.09375 C-2 0 -2 0 0 0 Z " fill="#2D68AA" transform="translate(278,73)"/>
<path d="M0 0 C-1 3 -1 3 -3.28515625 4.38671875 C-4.20167969 4.81597656 -5.11820312 5.24523437 -6.0625 5.6875 C-6.98160156 6.12449219 -7.90070313 6.56148438 -8.84765625 7.01171875 C-9.55792969 7.33785156 -10.26820312 7.66398437 -11 8 C-11 7.01 -11 6.02 -11 5 C-9.54462432 4.16151196 -8.08559627 3.32936066 -6.625 2.5 C-5.81289062 2.0359375 -5.00078125 1.571875 -4.1640625 1.09375 C-2 0 -2 0 0 0 Z " fill="#2E6AAC" transform="translate(129,73)"/>
<path d="M0 0 C-1 3 -1 3 -3.28515625 4.38671875 C-4.20167969 4.81597656 -5.11820312 5.24523437 -6.0625 5.6875 C-6.98160156 6.12449219 -7.90070313 6.56148438 -8.84765625 7.01171875 C-9.55792969 7.33785156 -10.26820313 7.66398437 -11 8 C-10.74609375 6.140625 -10.74609375 6.140625 -10 4 C-8.22265625 2.734375 -8.22265625 2.734375 -6.0625 1.75 C-5.35222656 1.41484375 -4.64195312 1.0796875 -3.91015625 0.734375 C-2 0 -2 0 0 0 Z " fill="#2D68AA" transform="translate(278,68)"/>
<path d="M0 0 C-1 3 -1 3 -3.28515625 4.38671875 C-4.20167969 4.81597656 -5.11820312 5.24523437 -6.0625 5.6875 C-6.98160156 6.12449219 -7.90070313 6.56148438 -8.84765625 7.01171875 C-9.55792969 7.33785156 -10.26820312 7.66398437 -11 8 C-10.6221946 5.56979231 -10.40389416 4.33554284 -8.4765625 2.734375 C-7.86554688 2.40953125 -7.25453125 2.0846875 -6.625 1.75 C-6.01914063 1.41484375 -5.41328125 1.0796875 -4.7890625 0.734375 C-3 0 -3 0 0 0 Z " fill="#2D68AB" transform="translate(129,63)"/>
<path d="M0 0 C-1 3 -1 3 -3.28515625 4.38671875 C-4.20167969 4.81597656 -5.11820312 5.24523437 -6.0625 5.6875 C-6.98160156 6.12449219 -7.90070313 6.56148437 -8.84765625 7.01171875 C-9.55792969 7.33785156 -10.26820312 7.66398438 -11 8 C-10.74609375 6.140625 -10.74609375 6.140625 -10 4 C-8.22265625 2.734375 -8.22265625 2.734375 -6.0625 1.75 C-5.35222656 1.41484375 -4.64195313 1.0796875 -3.91015625 0.734375 C-2 0 -2 0 0 0 Z " fill="#2E69AB" transform="translate(81,143)"/>
<path d="M0 0 C-1 3 -1 3 -3.28515625 4.38671875 C-4.20167969 4.81597656 -5.11820312 5.24523437 -6.0625 5.6875 C-6.98160156 6.12449219 -7.90070313 6.56148437 -8.84765625 7.01171875 C-9.55792969 7.33785156 -10.26820313 7.66398438 -11 8 C-11 7.01 -11 6.02 -11 5 C-9.54462432 4.16151196 -8.08559627 3.32936066 -6.625 2.5 C-5.81289063 2.0359375 -5.00078125 1.571875 -4.1640625 1.09375 C-2 0 -2 0 0 0 Z " fill="#2E6AAC" transform="translate(324,137)"/>
<path d="M0 0 C-1 3 -1 3 -3.28515625 4.38671875 C-4.20167969 4.81597656 -5.11820312 5.24523437 -6.0625 5.6875 C-6.98160156 6.12449219 -7.90070313 6.56148437 -8.84765625 7.01171875 C-9.55792969 7.33785156 -10.26820313 7.66398438 -11 8 C-11 7.01 -11 6.02 -11 5 C-9.54462432 4.16151196 -8.08559627 3.32936066 -6.625 2.5 C-5.81289063 2.0359375 -5.00078125 1.571875 -4.1640625 1.09375 C-2 0 -2 0 0 0 Z " fill="#2E69AC" transform="translate(324,132)"/>
<path d="M0 0 C4.30764815 1.56641751 8.06171464 3.68336156 12 6 C12 6.66 12 7.32 12 8 C7.39571066 6.68448876 3.81679612 4.90803514 0 2 C0 1.34 0 0.68 0 0 Z " fill="#2B68A8" transform="translate(50,127)"/>
<path d="M0 0 C0 0.99 0 1.98 0 3 C-5.445 5.475 -5.445 5.475 -11 8 C-11 7.01 -11 6.02 -11 5 C-9.54462432 4.16151196 -8.08559627 3.32936066 -6.625 2.5 C-5.81289062 2.0359375 -5.00078125 1.571875 -4.1640625 1.09375 C-2 0 -2 0 0 0 Z " fill="#2D68AB" transform="translate(81,127)"/>
<path d="M0 0 C0.33 0.99 0.66 1.98 1 3 C-0.45537568 3.83848804 -1.91440373 4.67063934 -3.375 5.5 C-4.59316406 6.19609375 -4.59316406 6.19609375 -5.8359375 6.90625 C-8 8 -8 8 -10 8 C-8.76736651 4.30209954 -7.79947549 4.0645154 -4.4375 2.3125 C-3.61121094 1.87550781 -2.78492188 1.43851562 -1.93359375 0.98828125 C-1.29550781 0.66214844 -0.65742188 0.33601563 0 0 Z " fill="#2E6AAD" transform="translate(323,121)"/>
<path d="M0 0 C-1 3 -1 3 -3.28515625 4.38671875 C-4.20167969 4.81597656 -5.11820312 5.24523437 -6.0625 5.6875 C-6.98160156 6.12449219 -7.90070313 6.56148438 -8.84765625 7.01171875 C-9.55792969 7.33785156 -10.26820313 7.66398437 -11 8 C-10.74609375 6.140625 -10.74609375 6.140625 -10 4 C-8.22265625 2.734375 -8.22265625 2.734375 -6.0625 1.75 C-5.35222656 1.41484375 -4.64195312 1.0796875 -3.91015625 0.734375 C-2 0 -2 0 0 0 Z " fill="#2D68AA" transform="translate(278,84)"/>
<path d="M0 0 C3.96 1.98 7.92 3.96 12 6 C12 6.66 12 7.32 12 8 C7.39571066 6.68448876 3.81679612 4.90803514 0 2 C0 1.34 0 0.68 0 0 Z " fill="#2C68A9" transform="translate(98,78)"/>
<path d="M0 0 C3.13439441 1.07229283 6.06195683 2.47657021 9 4 C8.67 4.99 8.34 5.98 8 7 C7.16855469 6.54947266 7.16855469 6.54947266 6.3203125 6.08984375 C5.59585938 5.70957031 4.87140625 5.32929687 4.125 4.9375 C3.40570313 4.55464844 2.68640625 4.17179687 1.9453125 3.77734375 C1.30335937 3.52082031 0.66140625 3.26429687 0 3 C-0.99 3.495 -0.99 3.495 -2 4 C-2 3.01 -2 2.02 -2 1 C-1.34 0.67 -0.68 0.34 0 0 Z " fill="#14335B" transform="translate(99,76)"/>
<path d="M0 0 C3.7910119 1.44950455 7.3874638 3.15172566 11 5 C10.67 5.99 10.34 6.98 10 8 C8.51478323 7.24088921 7.03696575 6.46728766 5.5625 5.6875 C4.73878906 5.25824219 3.91507813 4.82898438 3.06640625 4.38671875 C1 3 1 3 0 0 Z " fill="#2C68A9" transform="translate(247,73)"/>
<path d="M0 0 C-1 3 -1 3 -3.28515625 4.38671875 C-4.20167969 4.81597656 -5.11820312 5.24523437 -6.0625 5.6875 C-6.98160156 6.12449219 -7.90070313 6.56148438 -8.84765625 7.01171875 C-9.55792969 7.33785156 -10.26820312 7.66398437 -11 8 C-10.74609375 6.140625 -10.74609375 6.140625 -10 4 C-8.22265625 2.734375 -8.22265625 2.734375 -6.0625 1.75 C-5.35222656 1.41484375 -4.64195313 1.0796875 -3.91015625 0.734375 C-2 0 -2 0 0 0 Z " fill="#2D68AB" transform="translate(129,68)"/>
<path d="M0 0 C1.65161581 0.75836443 3.29617138 1.53212076 4.9375 2.3125 C5.85402344 2.74175781 6.77054688 3.17101562 7.71484375 3.61328125 C10 5 10 5 11 8 C7.2089881 6.55049545 3.6125362 4.84827434 0 3 C0 2.01 0 1.02 0 0 Z " fill="#869AB6" transform="translate(237,166)"/>
<path d="M0 0 C1.65161581 0.75836443 3.29617138 1.53212076 4.9375 2.3125 C5.85402344 2.74175781 6.77054688 3.17101562 7.71484375 3.61328125 C10 5 10 5 11 8 C7.2089881 6.55049545 3.6125362 4.84827434 0 3 C0 2.01 0 1.02 0 0 Z " fill="#869AB6" transform="translate(237,153)"/>
<path d="M0 0 C0 0.66 0 1.32 0 2 C-1.78881736 3.00508801 -3.58114696 4.00392736 -5.375 5 C-6.37273437 5.556875 -7.37046875 6.11375 -8.3984375 6.6875 C-11 8 -11 8 -13 8 C-13 7.34 -13 6.68 -13 6 C-11.21118264 4.99491199 -9.41885304 3.99607264 -7.625 3 C-6.62726563 2.443125 -5.62953125 1.88625 -4.6015625 1.3125 C-2 0 -2 0 0 0 Z " fill="#A2B1C6" transform="translate(207,94)"/>
<path d="M0 0 C3.63 1.65 7.26 3.3 11 5 C10.67 5.99 10.34 6.98 10 8 C6.7 6.35 3.4 4.7 0 3 C0 2.01 0 1.02 0 0 Z " fill="#2C68A9" transform="translate(247,83)"/>
<path d="M0 0 C3.63 1.65 7.26 3.3 11 5 C10.67 5.99 10.34 6.98 10 8 C6.7 6.35 3.4 4.7 0 3 C0 2.01 0 1.02 0 0 Z " fill="#2C68A9" transform="translate(247,78)"/>
<path d="M0 0 C3.7910119 1.44950455 7.3874638 3.15172566 11 5 C10.67 5.99 10.34 6.98 10 8 C8.32819726 7.05065487 6.66266064 6.09026687 5 5.125 C4.071875 4.59132812 3.14375 4.05765625 2.1875 3.5078125 C1.465625 3.01023438 0.74375 2.51265625 0 2 C0 1.34 0 0.68 0 0 Z " fill="#859AB6" transform="translate(237,173)"/>
<path d="M0 0 C4.05281712 1.22527029 7.44360764 2.69880494 11 5 C10.67 5.99 10.34 6.98 10 8 C8.32819726 7.05065487 6.66266064 6.09026687 5 5.125 C4.071875 4.59132812 3.14375 4.05765625 2.1875 3.5078125 C1.465625 3.01023438 0.74375 2.51265625 0 2 C0 1.34 0 0.68 0 0 Z " fill="#859AB6" transform="translate(237,160)"/>
<path d="M0 0 C4.455 1.98 4.455 1.98 9 4 C9.33 3.34 9.66 2.68 10 2 C9.67 3.65 9.34 5.3 9 7 C5.7 5.35 2.4 3.7 -1 2 C-0.67 1.34 -0.34 0.68 0 0 Z " fill="#14335B" transform="translate(53,141)"/>
<path d="M0 0 C-1 3 -1 3 -3.72265625 4.60546875 C-4.82480469 5.12753906 -5.92695313 5.64960937 -7.0625 6.1875 C-8.16722656 6.71730469 -9.27195313 7.24710937 -10.41015625 7.79296875 C-11.26480469 8.19128906 -12.11945313 8.58960937 -13 9 C-11.73809862 5.21429586 -10.45144185 4.78168429 -7.0625 2.8125 C-6.16660156 2.28269531 -5.27070313 1.75289063 -4.34765625 1.20703125 C-2 0 -2 0 0 0 Z " fill="#A1B1C5" transform="translate(207,100)"/>
<path d="M0 0 C0 0.99 0 1.98 0 3 C-2.1171875 4.60546875 -2.1171875 4.60546875 -4.875 6.1875 C-5.77992188 6.71730469 -6.68484375 7.24710937 -7.6171875 7.79296875 C-10 9 -10 9 -12 9 C-10.67708855 5.03126566 -9.08850262 4.70094963 -5.4375 2.8125 C-4.42558594 2.28269531 -3.41367188 1.75289063 -2.37109375 1.20703125 C-1.58863281 0.80871094 -0.80617187 0.41039063 0 0 Z " fill="#A0B0C5" transform="translate(206,87)"/>
<path d="M0 0 C4.03321763 1.21934486 7.54269479 2.55954927 11 5 C11 5.66 11 6.32 11 7 C6.96678237 5.78065514 3.45730521 4.44045073 0 2 C0 1.34 0 0.68 0 0 Z " fill="#2D6AAC" transform="translate(247,68)"/>
<path d="M0 0 C-1.22025063 3.6607519 -2.126491 3.92339441 -5.4375 5.6875 C-6.64212891 6.34298828 -6.64212891 6.34298828 -7.87109375 7.01171875 C-10 8 -10 8 -12 8 C-10.77974937 4.3392481 -9.873509 4.07660559 -6.5625 2.3125 C-5.75941406 1.87550781 -4.95632813 1.43851563 -4.12890625 0.98828125 C-2 0 -2 0 0 0 Z " fill="#A4B4C7" transform="translate(269,174)"/>
<path d="M0 0 C0.33 0.99 0.66 1.98 1 3 C-0.43011973 3.86646667 -1.86940619 4.71781829 -3.3125 5.5625 C-4.51326172 6.27599609 -4.51326172 6.27599609 -5.73828125 7.00390625 C-8 8 -8 8 -11 7 C-10.45730469 6.66226563 -9.91460937 6.32453125 -9.35546875 5.9765625 C-8.64003906 5.53054687 -7.92460937 5.08453125 -7.1875 4.625 C-6.47980469 4.18414062 -5.77210938 3.74328125 -5.04296875 3.2890625 C-3.34567961 2.21811524 -1.66985642 1.11323761 0 0 Z " fill="#A3B3C7" transform="translate(139,167)"/>
<path d="M0 0 C0.66 0.33 1.32 0.66 2 1 C1.01 2.485 1.01 2.485 0 4 C0.66 4 1.32 4 2 4 C2.33 4.99 2.66 5.98 3 7 C-0.35595828 6.40072174 -2.37801226 5.15377564 -5 3 C-2.625 1.4375 -2.625 1.4375 0 0 Z " fill="#283852" transform="translate(138,184)"/>
<path d="M0 0 C-1.22025063 3.6607519 -2.126491 3.92339441 -5.4375 5.6875 C-6.64212891 6.34298828 -6.64212891 6.34298828 -7.87109375 7.01171875 C-10 8 -10 8 -12 8 C-12 7.34 -12 6.68 -12 6 C-9.8828125 4.4921875 -9.8828125 4.4921875 -7.125 2.875 C-6.22007812 2.33617187 -5.31515625 1.79734375 -4.3828125 1.2421875 C-2 0 -2 0 0 0 Z " fill="#A4B3C7" transform="translate(140,174)"/>
<path d="M0 0 C0 0.99 0 1.98 0 3 C-1.45537568 3.83848804 -2.91440373 4.67063934 -4.375 5.5 C-5.59316406 6.19609375 -5.59316406 6.19609375 -6.8359375 6.90625 C-9 8 -9 8 -11 8 C-11 7.34 -11 6.68 -11 6 C-7.37 4.02 -3.74 2.04 0 0 Z " fill="#A2B2C6" transform="translate(268,161)"/>
<path d="M0 0 C0 0.99 0 1.98 0 3 C-1.45537568 3.83848804 -2.91440373 4.67063934 -4.375 5.5 C-5.59316406 6.19609375 -5.59316406 6.19609375 -6.8359375 6.90625 C-9 8 -9 8 -11 8 C-11 7.34 -11 6.68 -11 6 C-7.37 4.02 -3.74 2.04 0 0 Z " fill="#A2B2C6" transform="translate(139,161)"/>
<path d="M0 0 C2.81080836 1.14726872 4.1782406 1.94701628 6.0625 4.25 C5.0725 4.745 5.0725 4.745 4.0625 5.25 C2.1171875 4.47265625 2.1171875 4.47265625 -0.0625 3.3125 C-0.78695312 2.93222656 -1.51140625 2.55195312 -2.2578125 2.16015625 C-2.81210938 1.85980469 -3.36640625 1.55945313 -3.9375 1.25 C-4.2675 1.91 -4.5975 2.57 -4.9375 3.25 C-4.9375 2.26 -4.9375 1.27 -4.9375 0.25 C-2.9375 -0.75 -2.9375 -0.75 0 0 Z " fill="#123056" transform="translate(101.9375,71.75)"/>
<path d="M0 0 C3.0831351 1.19899698 6.06279492 2.47700477 9 4 C8.67 4.99 8.34 5.98 8 7 C5.03 5.35 2.06 3.7 -1 2 C-0.67 1.34 -0.34 0.68 0 0 Z " fill="#133159" transform="translate(51,130)"/>
<path d="M0 0 C0.66 0.33 1.32 0.66 2 1 C1.67 1.99 1.34 2.98 1 4 C0.071875 3.505 -0.85625 3.01 -1.8125 2.5 C-4.86527516 0.78710148 -4.86527516 0.78710148 -8 1 C-8 0.34 -8 -0.32 -8 -1 C-4.34566236 -2.21811255 -3.39369816 -1.56632223 0 0 Z " fill="#15345D" transform="translate(300,127)"/>
<path d="M0 0 C0.66 0 1.32 0 2 0 C3.09658936 3.28976808 2.79953138 4.71303767 2 8 C1.67 7.34 1.34 6.68 1 6 C-0.65 6.66 -2.3 7.32 -4 8 C-4.66 7.34 -5.32 6.68 -6 6 C-4.02 5.01 -2.04 4.02 0 3 C0 2.01 0 1.02 0 0 Z " fill="#214576" transform="translate(128,62)"/>
<path d="M0 0 C0.66 0.33 1.32 0.66 2 1 C0.57140593 2.03325986 -0.86822383 3.05127634 -2.3125 4.0625 C-3.51326172 4.91521484 -3.51326172 4.91521484 -4.73828125 5.78515625 C-5.48464844 6.18605469 -6.23101562 6.58695313 -7 7 C-7.99 6.67 -8.98 6.34 -10 6 C-8.70903219 5.18639005 -7.41720125 4.37414954 -6.125 3.5625 C-5.04605469 2.88380859 -5.04605469 2.88380859 -3.9453125 2.19140625 C-2 1 -2 1 0 0 Z " fill="#A1B1C5" transform="translate(138,155)"/>
<path d="M0 0 C6.0546875 -0.1953125 6.0546875 -0.1953125 8 0 C8.66 0.66 9.32 1.32 10 2 C8.375 3.1875 8.375 3.1875 6 4 C2.75 2.625 2.75 2.625 0 1 C0 0.67 0 0.34 0 0 Z " fill="#172C4E" transform="translate(276,102)"/>
<path d="M0 0 C0.33 0.66 0.66 1.32 1 2 C0.236875 1.79375 -0.52625 1.5875 -1.3125 1.375 C-4.21885944 0.66608797 -4.21885944 0.66608797 -7 3 C-9.1875 2.625 -9.1875 2.625 -11 2 C-7.01296238 -0.93164531 -4.77545985 -1.41093132 0 0 Z " fill="#202732" transform="translate(137,189)"/>
<path d="M0 0 C-0.66 1.65 -1.32 3.3 -2 5 C-3.9375 4.625 -3.9375 4.625 -6 4 C-6.33 3.34 -6.66 2.68 -7 2 C-2.25 0 -2.25 0 0 0 Z " fill="#283B5A" transform="translate(144,138)"/>
<path d="M0 0 C3.465 1.485 3.465 1.485 7 3 C6.67 3.99 6.34 4.98 6 6 C3.36 4.68 0.72 3.36 -2 2 C-1.34 1.34 -0.68 0.68 0 0 Z " fill="#14325B" transform="translate(297,131)"/>
<path d="M0 0 C3.465 1.485 3.465 1.485 7 3 C6.67 3.99 6.34 4.98 6 6 C3.36 4.68 0.72 3.36 -2 2 C-1.34 1.34 -0.68 0.68 0 0 Z " fill="#122F55" transform="translate(296,120)"/>
<path d="M0 0 C1.66666667 0.66666667 3.33333333 1.33333333 5 2 C5.66 1.67 6.32 1.34 7 1 C6.67 2.32 6.34 3.64 6 5 C0.25 3.25 0.25 3.25 -2 1 C-1.34 0.67 -0.68 0.34 0 0 Z " fill="#14335B" transform="translate(252,83)"/>
<path d="M0 0 C6.625 0.75 6.625 0.75 10 3 C9.34 3.66 8.68 4.32 8 5 C5.36 3.68 2.72 2.36 0 1 C0 0.67 0 0.34 0 0 Z " fill="#133159" transform="translate(100,68)"/>
<path d="M0 0 C6.75 0.875 6.75 0.875 9 2 C8.67 2.99 8.34 3.98 8 5 C5.36 3.68 2.72 2.36 0 1 C0 0.67 0 0.34 0 0 Z " fill="#122F56" transform="translate(99,83)"/>
<path d="M0 0 C2.475 0.99 2.475 0.99 5 2 C5.33 1.34 5.66 0.68 6 0 C5.67 1.65 5.34 3.3 5 5 C2.69 4.01 0.38 3.02 -2 2 C-1.34 1.34 -0.68 0.68 0 0 Z " fill="#15345D" transform="translate(57,138)"/>
<path d="M0 0 C5.5952381 0.5952381 5.5952381 0.5952381 8 3 C4.625 3.125 4.625 3.125 1 3 C0.34 2.34 -0.32 1.68 -1 1 C-0.67 0.67 -0.34 0.34 0 0 Z " fill="#1C345C" transform="translate(274,99)"/>
<path d="M0 0 C0.99 0.495 0.99 0.495 2 1 C4.09821215 0.60061233 4.09821215 0.60061233 6 0 C6 0.99 6 1.98 6 3 C4.35 3.66 2.7 4.32 1 5 C0.67 3.35 0.34 1.7 0 0 Z " fill="#204576" transform="translate(266,79)"/>
<path d="M0 0 C6.75 0.75 6.75 0.75 9 3 C6 4 6 4 2.8125 2.5625 C1.884375 2.046875 0.95625 1.53125 0 1 C0 0.67 0 0.34 0 0 Z " fill="#14325A" transform="translate(295,137)"/>
<path d="M0 0 C1.98 0.66 3.96 1.32 6 2 C6.33 1.34 6.66 0.68 7 0 C7 0.99 7 1.98 7 3 C2.25 4.125 2.25 4.125 0 3 C0 2.01 0 1.02 0 0 Z " fill="#163861" transform="translate(252,73)"/>
</svg>
